
<svg xmlns="http://www.w3.org/2000/svg" xmlns:xlink="http://www.w3.org/1999/xlink" viewBox="0 0 850 850" width="850" height="850" preserveAspectRatio="xMidYMid meet" style="width: 100%; height: 100%; transform: translate3d(0px, 0px, 0px); content-visibility: visible;" id="Reveal Loading"><defs><clipPath id="__lottie_element_5422"><rect width="850" height="850" x="0" y="0"/></clipPath><clipPath id="__lottie_element_5424"><path d="M0,0 L850,0 L850,850 L0,850z"/></clipPath><clipPath id="__lottie_element_5428"><path d="M0,0 L850,0 L850,850 L0,850z"/></clipPath><clipPath id="__lottie_element_5432"><path d="M0,0 L850,0 L850,850 L0,850z"/></clipPath><clipPath id="__lottie_element_5436"><path d="M0,0 L850,0 L850,850 L0,850z"/></clipPath><clipPath id="__lottie_element_5443"><path fill="#ffffff" clip-rule="nonzero" d=" M0.28589800000190735,13.670426368713379 C-78.26110076904297,13.670426368713379 -141.93707275390625,76.84742736816406 -141.93707275390625,154.78143310546875 C-141.93707275390625,232.71542358398438 -78.26110076904297,295.8924255371094 0.28589800000190735,295.8924255371094 C78.83290100097656,295.8924255371094 142.50791931152344,232.71542358398438 142.50791931152344,154.78143310546875 C142.50791931152344,76.84742736816406 78.83290100097656,13.670426368713379 0.28589800000190735,13.670426368713379" fill-opacity="1"/></clipPath><clipPath id="__lottie_element_5446"><path fill="#ffffff" clip-rule="nonzero" d=" M-146,-338 C-233.26100158691406,-338 -304,-284.27398681640625 -304,-218 C-304,-151.7259979248047 -233.26100158691406,-98 -146,-98 C-58.73899841308594,-98 12,-151.7259979248047 12,-218 C12,-284.27398681640625 -58.73899841308594,-338 -146,-338" fill-opacity="1"/></clipPath><clipPath id="__lottie_element_5449"><path fill="#ffffff" clip-rule="nonzero" d=" M-146,-338 C-233.26100158691406,-338 -304,-284.27398681640625 -304,-218 C-304,-151.7259979248047 -233.26100158691406,-98 -146,-98 C-58.73899841308594,-98 12,-151.7259979248047 12,-218 C12,-284.27398681640625 -58.73899841308594,-338 -146,-338" fill-opacity="1"/></clipPath></defs><g clip-path="url(#__lottie_element_5422)"><g clip-path="url(#__lottie_element_5424)" transform="matrix(1,0,0,1,0,0)" opacity="1" style="display: block;"><g transform="matrix(0.42957594990730286,0.2558603286743164,-0.2558603286743164,0.42957594990730286,558.1363525390625,766.445556640625)" opacity="1" style="display: block;"><g opacity="1" transform="matrix(0,1.5243500471115112,-1.5243500471115112,0,279.25,-258)"><path fill="rgb(255,255,255)" fill-opacity="1" d=" M22,-1.625 C22,-1.625 22,1.625 22,1.625 C22,1.625 -22,1.625 -22,1.625 C-22,1.625 -22,-1.625 -22,-1.625 C-22,-1.625 22,-1.625 22,-1.625z"/></g></g><g transform="matrix(0.42957594990730286,0.2558603286743164,-0.2558603286743164,0.42957594990730286,558.1363525390625,766.445556640625)" opacity="1" style="display: block;"><g opacity="1" transform="matrix(1.8207900524139404,0,0,1.4366300106048584,279.5,-259.5)"><path fill="rgb(255,255,255)" fill-opacity="1" d=" M22,-1.625 C22,-1.625 22,1.625 22,1.625 C22,1.625 -22,1.625 -22,1.625 C-22,1.625 -22,-1.625 -22,-1.625 C-22,-1.625 22,-1.625 22,-1.625z"/></g></g></g><g clip-path="url(#__lottie_element_5428)" transform="matrix(1,0,0,-1,0,850)" opacity="1" style="display: block;"><g transform="matrix(0.42957594990730286,0.2558603286743164,-0.2558603286743164,0.42957594990730286,558.1363525390625,766.445556640625)" opacity="1" style="display: block;"><g opacity="1" transform="matrix(0,1.5243500471115112,-1.5243500471115112,0,279.25,-258)"><path fill="rgb(255,255,255)" fill-opacity="1" d=" M22,-1.625 C22,-1.625 22,1.625 22,1.625 C22,1.625 -22,1.625 -22,1.625 C-22,1.625 -22,-1.625 -22,-1.625 C-22,-1.625 22,-1.625 22,-1.625z"/></g></g><g transform="matrix(0.42957594990730286,0.2558603286743164,-0.2558603286743164,0.42957594990730286,558.1363525390625,766.445556640625)" opacity="1" style="display: block;"><g opacity="1" transform="matrix(1.8207900524139404,0,0,1.4366300106048584,279.5,-259.5)"><path fill="rgb(255,255,255)" fill-opacity="1" d=" M22,-1.625 C22,-1.625 22,1.625 22,1.625 C22,1.625 -22,1.625 -22,1.625 C-22,1.625 -22,-1.625 -22,-1.625 C-22,-1.625 22,-1.625 22,-1.625z"/></g></g></g><g clip-path="url(#__lottie_element_5432)" transform="matrix(-1,0,0,-1,850,850)" opacity="1" style="display: block;"><g transform="matrix(0.42957594990730286,0.2558603286743164,-0.2558603286743164,0.42957594990730286,558.1363525390625,766.445556640625)" opacity="1" style="display: block;"><g opacity="1" transform="matrix(0,1.5243500471115112,-1.5243500471115112,0,279.25,-258)"><path fill="rgb(255,255,255)" fill-opacity="1" d=" M22,-1.625 C22,-1.625 22,1.625 22,1.625 C22,1.625 -22,1.625 -22,1.625 C-22,1.625 -22,-1.625 -22,-1.625 C-22,-1.625 22,-1.625 22,-1.625z"/></g></g><g transform="matrix(0.42957594990730286,0.2558603286743164,-0.2558603286743164,0.42957594990730286,558.1363525390625,766.445556640625)" opacity="1" style="display: block;"><g opacity="1" transform="matrix(1.8207900524139404,0,0,1.4366300106048584,279.5,-259.5)"><path fill="rgb(255,255,255)" fill-opacity="1" d=" M22,-1.625 C22,-1.625 22,1.625 22,1.625 C22,1.625 -22,1.625 -22,1.625 C-22,1.625 -22,-1.625 -22,-1.625 C-22,-1.625 22,-1.625 22,-1.625z"/></g></g></g><g clip-path="url(#__lottie_element_5436)" transform="matrix(-1,0,0,1,850,0)" opacity="1" style="display: block;"><g transform="matrix(0.42957594990730286,0.2558603286743164,-0.2558603286743164,0.42957594990730286,558.1363525390625,766.445556640625)" opacity="1" style="display: block;"><g opacity="1" transform="matrix(0,1.5243500471115112,-1.5243500471115112,0,279.25,-258)"><path fill="rgb(255,255,255)" fill-opacity="1" d=" M22,-1.625 C22,-1.625 22,1.625 22,1.625 C22,1.625 -22,1.625 -22,1.625 C-22,1.625 -22,-1.625 -22,-1.625 C-22,-1.625 22,-1.625 22,-1.625z"/></g></g><g transform="matrix(0.42957594990730286,0.2558603286743164,-0.2558603286743164,0.42957594990730286,558.1363525390625,766.445556640625)" opacity="1" style="display: block;"><g opacity="1" transform="matrix(1.8207900524139404,0,0,1.4366300106048584,279.5,-259.5)"><path fill="rgb(255,255,255)" fill-opacity="1" d=" M22,-1.625 C22,-1.625 22,1.625 22,1.625 C22,1.625 -22,1.625 -22,1.625 C-22,1.625 -22,-1.625 -22,-1.625 C-22,-1.625 22,-1.625 22,-1.625z"/></g></g></g><g transform="matrix(-0.4528672397136688,0.77776038646698,-0.77776038646698,-0.4528672397136688,424.25,425)" opacity="1" style="display: block;"><g opacity="1" transform="matrix(1.2128499746322632,0,0,1.2128499746322632,-1.1109999418258667,-280)"><path stroke-linecap="butt" stroke-linejoin="miter" fill-opacity="0" stroke-miterlimit="4" stroke="rgb(115,37,150)" stroke-opacity="1" stroke-width="7" d=" M0,-22.222000122070312 C12.264322280883789,-22.222000122070312 22.222000122070312,-12.264322280883789 22.222000122070312,0 C22.222000122070312,12.264322280883789 12.264322280883789,22.222000122070312 0,22.222000122070312 C-12.264322280883789,22.222000122070312 -22.222000122070312,12.264322280883789 -22.222000122070312,0 C-22.222000122070312,-12.264322280883789 -12.264322280883789,-22.222000122070312 0,-22.222000122070312z"/></g><g opacity="1" transform="matrix(1.2128499746322632,0,0,1.2128499746322632,-0.5559999942779541,276.1109924316406)"><path stroke-linecap="butt" stroke-linejoin="miter" fill-opacity="0" stroke-miterlimit="4" stroke="rgb(115,37,150)" stroke-opacity="1" stroke-width="7" d=" M0,-22.222000122070312 C12.264322280883789,-22.222000122070312 22.222000122070312,-12.264322280883789 22.222000122070312,0 C22.222000122070312,12.264322280883789 12.264322280883789,22.222000122070312 0,22.222000122070312 C-12.264322280883789,22.222000122070312 -22.222000122070312,12.264322280883789 -22.222000122070312,0 C-22.222000122070312,-12.264322280883789 -12.264322280883789,-22.222000122070312 0,-22.222000122070312z"/></g><g opacity="1" transform="matrix(0.8425899744033813,0,0,1,-2.2219998836517334,1.1109999418258667)"><path fill="rgb(115,37,150)" fill-opacity="1" d=" M6.666500091552734,-250 C6.666500091552734,-250 6.666500091552734,250 6.666500091552734,250 C6.666500091552734,250 -6.666500091552734,250 -6.666500091552734,250 C-6.666500091552734,250 -6.666500091552734,-250 -6.666500091552734,-250 C-6.666500091552734,-250 6.666500091552734,-250 6.666500091552734,-250z"/></g></g><g clip-path="url(#__lottie_element_5443)" transform="matrix(0.8999999761581421,0,0,0.8999999761581421,425,425)" opacity="1" style="display: block;"><g opacity="1" transform="matrix(1,0,0,1,0,0)"><path stroke-linecap="butt" stroke-linejoin="miter" fill-opacity="0" stroke-miterlimit="4" stroke="rgb(115,37,150)" stroke-opacity="1" stroke-width="5" d=" M0,-197.7779998779297 C109.15367889404297,-197.7779998779297 197.7779998779297,-109.15367889404297 197.7779998779297,0 C197.7779998779297,109.15367889404297 109.15367889404297,197.7779998779297 0,197.7779998779297 C-109.15367889404297,197.7779998779297 -197.7779998779297,109.15367889404297 -197.7779998779297,0 C-197.7779998779297,-109.15367889404297 -109.15367889404297,-197.7779998779297 0,-197.7779998779297z"/></g></g><g clip-path="url(#__lottie_element_5446)" transform="matrix(0.021994182839989662,-0.9997581243515015,0.9997581243515015,0.021994182839989662,425,425)" opacity="1" style="display: block;"><g opacity="1" transform="matrix(1,0,0,1,0,0)"><path stroke-linecap="butt" stroke-linejoin="miter" fill-opacity="0" stroke-miterlimit="4" stroke-dasharray=" 10 25" stroke-dashoffset="0" stroke="rgb(94,9,134)" stroke-opacity="1" stroke-width="30" d=" M0,-250 C137.97500610351562,-250 250,-137.97500610351562 250,0 C250,137.97500610351562 137.97500610351562,250 0,250 C-137.97500610351562,250 -250,137.97500610351562 -250,0 C-250,-137.97500610351562 -137.97500610351562,-250 0,-250z"/></g></g><g clip-path="url(#__lottie_element_5449)" transform="matrix(-0.021994182839989662,0.9997581243515015,-0.9997581243515015,-0.021994182839989662,425,425)" opacity="1" style="display: block;"><g opacity="1" transform="matrix(1,0,0,1,0,0)"><path stroke-linecap="butt" stroke-linejoin="miter" fill-opacity="0" stroke-miterlimit="4" stroke-dasharray=" 10 25" stroke-dashoffset="0" stroke="rgb(142,67,177)" stroke-opacity="1" stroke-width="30" d=" M0,-250 C137.97500610351562,-250 250,-137.97500610351562 250,0 C250,137.97500610351562 137.97500610351562,250 0,250 C-137.97500610351562,250 -250,137.97500610351562 -250,0 C-250,-137.97500610351562 -137.97500610351562,-250 0,-250z"/></g></g><g transform="matrix(-0.018281688913702965,-0.017047950997948647,0.017047950997948647,-0.018281688913702965,425,425)" opacity="1" style="display: block;"><g opacity="1" transform="matrix(1,0,0,1,0.6809999942779541,1.1080000400543213)"><path stroke-linecap="butt" stroke-linejoin="miter" fill-opacity="0" stroke-miterlimit="4" stroke="rgb(196,137,231)" stroke-opacity="1" stroke-width="4" d=" M0,-113.62449645996094 C62.70935821533203,-113.62449645996094 113.62449645996094,-62.70935821533203 113.62449645996094,0 C113.62449645996094,62.70935821533203 62.70935821533203,113.62449645996094 0,113.62449645996094 C-62.70935821533203,113.62449645996094 -113.62449645996094,62.70935821533203 -113.62449645996094,0 C-113.62449645996094,-62.70935821533203 -62.70935821533203,-113.62449645996094 0,-113.62449645996094z"/></g></g><g transform="matrix(0.8999999761581421,0,0,0.8999999761581421,425,425)" opacity="0.3" style="display: block;"><g opacity="1" transform="matrix(1,0,0,1,0,-2.2219998836517334)"><path stroke-linecap="butt" stroke-linejoin="miter" fill-opacity="0" stroke-miterlimit="4" stroke="rgb(142,67,177)" stroke-opacity="1" stroke-width="30" d=" M0,-200 C110.37999725341797,-200 200,-110.37999725341797 200,0 C200,110.37999725341797 110.37999725341797,200 0,200 C-110.37999725341797,200 -200,110.37999725341797 -200,0 C-200,-110.37999725341797 -110.37999725341797,-200 0,-200z"/></g></g><g transform="matrix(-0.797072172164917,0.41794249415397644,-0.41794249415397644,-0.797072172164917,425,425)" opacity="1" style="display: block;"><g opacity="1" transform="matrix(1,0,0,1,-0.7630000114440918,-0.06300000101327896)"><path stroke-linecap="butt" stroke-linejoin="miter" fill-opacity="0" stroke-miterlimit="4" stroke="rgb(115,37,150)" stroke-opacity="1" stroke-width="40" d=" M0,-130.36399841308594 C71.94789123535156,-130.36399841308594 130.36399841308594,-71.94789123535156 130.36399841308594,0 C130.36399841308594,71.94789123535156 71.94789123535156,130.36399841308594 0,130.36399841308594 C-71.94789123535156,130.36399841308594 -130.36399841308594,71.94789123535156 -130.36399841308594,0 C-130.36399841308594,-71.94789123535156 -71.94789123535156,-130.36399841308594 0,-130.36399841308594z"/></g></g><g transform="matrix(-0.7146434783935547,-0.5470691919326782,-0.5470691919326782,0.7146434783935547,425,425)" opacity="1" style="display: block;"><g opacity="1" transform="matrix(1,0,0,1,-1.159999966621399,0.05000000074505806)"><path stroke-linecap="butt" stroke-linejoin="miter" fill-opacity="0" stroke-miterlimit="4" stroke="rgb(115,37,150)" stroke-opacity="1" stroke-width="5" d=" M0,-279.1264953613281 C154.04991149902344,-279.1264953613281 279.1264953613281,-154.04991149902344 279.1264953613281,0 C279.1264953613281,154.04991149902344 154.04991149902344,279.1264953613281 0,279.1264953613281 C-154.04991149902344,279.1264953613281 -279.1264953613281,154.04991149902344 -279.1264953613281,0 C-279.1264953613281,-154.04991149902344 -154.04991149902344,-279.1264953613281 0,-279.1264953613281z"/></g></g><g transform="matrix(0.34014326333999634,0.8870189189910889,-0.8870189189910889,0.34014326333999634,425,425)" opacity="1" style="display: block;"><g opacity="1" transform="matrix(1,0,0,1,-0.08399999886751175,-1.246999979019165)"><path stroke-linecap="butt" stroke-linejoin="miter" fill-opacity="0" stroke-miterlimit="4" stroke-dasharray=" 4 70" stroke-dashoffset="0" stroke="rgb(142,67,177)" stroke-opacity="1" stroke-width="50" d=" M0,-324.781494140625 C179.2469024658203,-324.781494140625 324.781494140625,-179.2469024658203 324.781494140625,0 C324.781494140625,179.2469024658203 179.2469024658203,324.781494140625 0,324.781494140625 C-179.2469024658203,324.781494140625 -324.781494140625,179.2469024658203 -324.781494140625,0 C-324.781494140625,-179.2469024658203 -179.2469024658203,-324.781494140625 0,-324.781494140625z"/></g></g></g></svg>