<svg width="5497" height="2353" viewBox="0 0 5497 2353" fill="none" xmlns="http://www.w3.org/2000/svg">
<g clip-path="url(#clip0_88_84)">
<path d="M3151.8 2302.66C3117.78 2302.64 3085.16 2290.94 3061.11 2270.14C3037.06 2249.33 3023.55 2221.12 3023.55 2191.71C3023.55 2162.3 3037.06 2134.09 3061.11 2113.29C3085.16 2092.49 3117.78 2080.79 3151.8 2080.77H5058.01C5048.42 2065.55 5034.27 2052.85 5017.04 2043.99C4999.81 2035.14 4980.14 2030.46 4960.1 2030.45H1171.06C1121.62 2030.5 1074.23 2047.51 1039.3 2077.75C1004.37 2107.99 984.747 2148.98 984.754 2191.71C984.779 2234.44 1004.41 2275.42 1039.33 2305.65C1074.26 2335.88 1121.63 2352.9 1171.06 2352.98H4960.1C4980.14 2352.96 4999.81 2348.28 5017.04 2339.43C5034.27 2330.58 5048.42 2317.87 5058.01 2302.66L3151.8 2302.66Z" fill="#CCCCCC"/>
<path d="M5060.54 2141.9H3248.18C3245.4 2141.9 3242.74 2140.94 3240.78 2139.24C3238.82 2137.54 3237.72 2135.24 3237.72 2132.84C3237.72 2130.45 3238.82 2128.15 3240.78 2126.45C3242.74 2124.75 3245.4 2123.79 3248.18 2123.79H5060.54C5063.31 2123.79 5065.97 2124.75 5067.93 2126.45C5069.89 2128.15 5070.99 2130.45 5070.99 2132.84C5070.99 2135.24 5069.89 2137.54 5067.93 2139.24C5065.97 2140.94 5063.31 2141.9 5060.54 2141.9Z" fill="#CCCCCC"/>
<path d="M5060.54 2200.77H3248.18C3245.4 2200.77 3242.73 2199.82 3240.77 2198.12C3238.8 2196.42 3237.7 2194.11 3237.7 2191.71C3237.7 2189.31 3238.8 2187.01 3240.77 2185.31C3242.73 2183.61 3245.4 2182.66 3248.18 2182.66H5060.54C5063.32 2182.66 5065.98 2183.61 5067.95 2185.31C5069.91 2187.01 5071.02 2189.31 5071.02 2191.71C5071.02 2194.11 5069.91 2196.42 5067.95 2198.12C5065.98 2199.82 5063.32 2200.77 5060.54 2200.77Z" fill="#CCCCCC"/>
<path d="M5060.54 2259.64H3248.18C3245.4 2259.63 3242.74 2258.68 3240.78 2256.98C3238.82 2255.28 3237.72 2252.98 3237.72 2250.58C3237.72 2248.18 3238.82 2245.88 3240.78 2244.19C3242.74 2242.49 3245.4 2241.53 3248.18 2241.52H5060.54C5063.31 2241.53 5065.97 2242.49 5067.93 2244.19C5069.89 2245.88 5070.99 2248.18 5070.99 2250.58C5070.99 2252.98 5069.89 2255.28 5067.93 2256.98C5065.97 2258.68 5063.31 2259.63 5060.54 2259.64Z" fill="#CCCCCC"/>
<path d="M2659.42 1990.2C2625.4 1990.18 2592.78 1978.48 2568.73 1957.68C2544.68 1936.87 2531.17 1908.67 2531.17 1879.25C2531.17 1849.84 2544.68 1821.64 2568.73 1800.83C2592.78 1780.03 2625.4 1768.33 2659.42 1768.31H4565.63C4556.04 1753.09 4541.89 1740.39 4524.66 1731.54C4507.44 1722.68 4487.77 1718 4467.73 1717.99H678.682C629.248 1718.04 581.858 1735.05 546.924 1765.29C511.99 1795.53 492.37 1836.52 492.375 1879.25C492.401 1921.98 512.03 1962.96 546.957 1993.19C581.885 2023.42 629.257 2040.44 678.682 2040.52H4467.73C4487.77 2040.51 4507.44 2035.83 4524.66 2026.97C4541.89 2018.12 4556.04 2005.42 4565.63 1990.2L2659.42 1990.2Z" fill="#5F0A87"/>
<path d="M4568.16 1829.44H2755.8C2753.02 1829.44 2750.37 1828.48 2748.41 1826.78C2746.45 1825.09 2745.35 1822.79 2745.35 1820.39C2745.35 1817.99 2746.45 1815.69 2748.41 1813.99C2750.37 1812.29 2753.02 1811.34 2755.8 1811.33H4568.16C4570.94 1811.33 4573.61 1812.28 4575.57 1813.98C4577.54 1815.68 4578.64 1817.98 4578.64 1820.39C4578.64 1822.79 4577.54 1825.09 4575.57 1826.79C4573.61 1828.49 4570.94 1829.44 4568.16 1829.44Z" fill="#CCCCCC"/>
<path d="M4568.16 1888.31H2755.8C2753.02 1888.31 2750.36 1887.36 2748.39 1885.66C2746.43 1883.96 2745.32 1881.66 2745.32 1879.26C2745.32 1876.85 2746.43 1874.55 2748.39 1872.85C2750.36 1871.15 2753.02 1870.2 2755.8 1870.2H4568.16C4570.94 1870.2 4573.61 1871.15 4575.57 1872.85C4577.54 1874.55 4578.64 1876.85 4578.64 1879.26C4578.64 1881.66 4577.54 1883.96 4575.57 1885.66C4573.61 1887.36 4570.94 1888.31 4568.16 1888.31Z" fill="#CCCCCC"/>
<path d="M4568.16 1947.18H2755.8C2753.02 1947.18 2750.37 1946.22 2748.41 1944.52C2746.45 1942.82 2745.35 1940.52 2745.35 1938.12C2745.35 1935.73 2746.45 1933.43 2748.41 1931.73C2750.37 1930.03 2753.02 1929.07 2755.8 1929.07H4568.16C4569.54 1929.07 4570.91 1929.3 4572.18 1929.75C4573.45 1930.2 4574.61 1930.87 4575.59 1931.71C4576.56 1932.55 4577.34 1933.55 4577.86 1934.65C4578.39 1935.75 4578.66 1936.93 4578.66 1938.12C4578.66 1939.32 4578.39 1940.5 4577.86 1941.6C4577.34 1942.7 4576.56 1943.7 4575.59 1944.54C4574.61 1945.38 4573.45 1946.04 4572.18 1946.5C4570.91 1946.95 4569.54 1947.18 4568.16 1947.18Z" fill="#CCCCCC"/>
<path d="M2167.04 1667.32C2133.02 1667.3 2100.4 1655.6 2076.35 1634.8C2052.31 1613.99 2038.8 1585.78 2038.8 1556.37C2038.8 1526.96 2052.31 1498.75 2076.35 1477.95C2100.4 1457.15 2133.02 1445.45 2167.04 1445.43H4073.25C4063.67 1430.21 4049.52 1417.51 4032.29 1408.66C4015.06 1399.8 3995.39 1395.12 3975.35 1395.11H186.304C136.87 1395.16 89.4797 1412.17 54.5463 1442.41C19.6129 1472.64 -0.00619254 1513.64 -4.05153e-05 1556.37C0.0249698 1599.1 19.654 1640.08 54.5807 1670.31C89.5073 1700.54 136.879 1717.56 186.304 1717.64H3975.35C3995.39 1717.62 4015.06 1712.94 4032.29 1704.09C4049.52 1695.23 4063.67 1682.53 4073.25 1667.32L2167.04 1667.32Z" fill="#CCCCCC"/>
<path d="M4075.79 1506.56H2263.42C2260.65 1506.55 2257.99 1505.6 2256.03 1503.9C2254.07 1502.2 2252.97 1499.9 2252.97 1497.5C2252.97 1495.11 2254.07 1492.8 2256.03 1491.11C2257.99 1489.41 2260.65 1488.45 2263.42 1488.45H4075.79C4078.57 1488.45 4081.23 1489.4 4083.19 1491.1C4085.16 1492.8 4086.26 1495.1 4086.26 1497.5C4086.26 1499.91 4085.16 1502.21 4083.19 1503.91C4081.23 1505.61 4078.57 1506.56 4075.79 1506.56Z" fill="#CCCCCC"/>
<path d="M4075.79 1565.43H2263.42C2262.05 1565.43 2260.68 1565.19 2259.41 1564.74C2258.14 1564.28 2256.99 1563.62 2256.01 1562.78C2255.04 1561.94 2254.27 1560.94 2253.74 1559.84C2253.22 1558.74 2252.95 1557.56 2252.95 1556.37C2252.95 1555.18 2253.22 1554.01 2253.74 1552.91C2254.27 1551.81 2255.04 1550.81 2256.01 1549.97C2256.99 1549.13 2258.14 1548.46 2259.41 1548.01C2260.68 1547.55 2262.05 1547.32 2263.42 1547.32H4075.79C4077.16 1547.32 4078.52 1547.55 4079.8 1548.01C4081.07 1548.46 4082.22 1549.13 4083.19 1549.97C4084.17 1550.81 4084.94 1551.81 4085.47 1552.91C4085.99 1554.01 4086.26 1555.18 4086.26 1556.37C4086.26 1557.56 4085.99 1558.74 4085.47 1559.84C4084.94 1560.94 4084.17 1561.94 4083.19 1562.78C4082.22 1563.62 4081.07 1564.28 4079.8 1564.74C4078.52 1565.19 4077.16 1565.43 4075.79 1565.43Z" fill="#CCCCCC"/>
<path d="M4075.79 1624.3H2263.42C2260.64 1624.3 2257.98 1623.34 2256.01 1621.65C2254.05 1619.95 2252.95 1617.64 2252.95 1615.24C2252.95 1612.84 2254.05 1610.54 2256.01 1608.84C2257.98 1607.14 2260.64 1606.18 2263.42 1606.18H4075.79C4077.16 1606.18 4078.52 1606.42 4079.8 1606.87C4081.07 1607.33 4082.22 1608 4083.19 1608.84C4084.17 1609.68 4084.94 1610.68 4085.47 1611.78C4085.99 1612.87 4086.26 1614.05 4086.26 1615.24C4086.26 1616.43 4085.99 1617.61 4085.47 1618.71C4084.94 1619.81 4084.17 1620.8 4083.19 1621.65C4082.22 1622.49 4081.07 1623.15 4079.8 1623.61C4078.52 1624.06 4077.16 1624.3 4075.79 1624.3Z" fill="#CCCCCC"/>
<path d="M4117.64 978.515C4107.7 978.501 4098.13 975.223 4090.88 969.343C4083.63 963.464 4079.24 955.422 4078.59 946.846L4072.77 870.072C4072.09 861.105 4075.56 852.271 4082.42 845.515C4089.27 838.759 4098.95 834.633 4109.32 834.046L4805.08 794.654C4816.04 794.033 4827.05 795.286 4837.45 798.341C4847.86 801.395 4857.47 806.192 4865.73 812.458C4874 818.723 4880.75 826.334 4885.61 834.856C4890.47 843.378 4893.34 852.644 4894.06 862.125C4894.78 871.607 4893.33 881.117 4889.8 890.115C4886.26 899.112 4880.71 907.419 4873.47 914.563C4866.22 921.706 4857.42 927.545 4847.56 931.747C4837.7 935.949 4826.98 938.431 4816.02 939.052L4120.26 978.441C4119.38 978.489 4118.51 978.514 4117.64 978.515Z" fill="#5F0A87"/>
<path d="M4254.83 988.414C4244.7 988.399 4234.96 984.995 4227.66 978.914C4220.37 972.834 4216.07 964.548 4215.68 955.793L4210.73 841.122C4210.53 836.675 4211.36 832.239 4213.15 828.068C4214.94 823.896 4217.66 820.071 4221.16 816.809C4224.66 813.548 4228.87 810.914 4233.55 809.059C4238.23 807.205 4243.29 806.165 4248.43 805.999L4820.57 787.512C4830.96 787.177 4841.07 790.423 4848.69 796.536C4856.31 802.648 4860.81 811.127 4861.2 820.108L4866.16 934.779C4866.35 939.225 4865.53 943.661 4863.74 947.833C4861.94 952.004 4859.22 955.83 4855.72 959.091C4852.22 962.353 4848.01 964.986 4843.33 966.841C4838.65 968.696 4833.6 969.736 4828.45 969.902L4256.31 988.388C4255.82 988.406 4255.32 988.414 4254.83 988.414Z" fill="#2F2E41"/>
<path d="M4925.29 2045.47H4836.29C4825.9 2045.46 4815.94 2041.89 4808.59 2035.53C4801.24 2029.18 4797.11 2020.57 4797.1 2011.59V1370.34C4797.11 1361.35 4801.24 1352.74 4808.59 1346.39C4815.94 1340.04 4825.9 1336.46 4836.29 1336.45H4925.29C4935.68 1336.46 4945.64 1340.04 4952.99 1346.39C4960.34 1352.74 4964.47 1361.35 4964.48 1370.34V2011.59C4964.47 2020.57 4960.34 2029.18 4952.99 2035.53C4945.64 2041.89 4935.68 2045.46 4925.29 2045.47Z" fill="#2F2E41"/>
<path d="M4530.26 1706.51L4454.16 1666.63C4445.28 1661.96 4438.9 1654.44 4436.43 1645.72C4433.95 1637 4435.58 1627.78 4440.96 1620.09L4825.44 1071.71C4830.83 1064.04 4839.53 1058.52 4849.62 1056.39C4859.72 1054.25 4870.38 1055.65 4879.27 1060.3L4955.38 1100.18C4964.26 1104.85 4970.63 1112.37 4973.11 1121.09C4975.58 1129.82 4973.95 1139.03 4968.58 1146.72L4584.1 1695.1C4578.7 1702.78 4570 1708.29 4559.91 1710.43C4549.82 1712.57 4539.16 1711.16 4530.26 1706.51Z" fill="#2F2E41"/>
<path d="M4790.12 667.242C4959.96 667.242 5097.64 548.216 5097.64 401.389C5097.64 254.563 4959.96 135.536 4790.12 135.536C4620.28 135.536 4482.6 254.563 4482.6 401.389C4482.6 548.216 4620.28 667.242 4790.12 667.242Z" fill="#5F0A87"/>
<path d="M4623.66 492.161C4613.77 489.351 4604.69 484.742 4597.03 478.646C4591.95 474.292 4588.04 469.032 4585.57 463.234C4583.09 457.436 4582.11 451.24 4582.69 445.08C4583.02 440.691 4584.51 436.426 4587.05 432.618C4589.6 428.81 4593.12 425.563 4597.36 423.129C4608.36 417.03 4623.07 417.012 4638.04 422.718L4637.48 318.932L4649.53 318.883L4650.2 440.893L4640.91 435.84C4630.13 429.991 4614.75 425.873 4603.87 431.905C4601.19 433.498 4598.96 435.606 4597.37 438.064C4595.78 440.522 4594.87 443.264 4594.7 446.078C4594.29 450.666 4595.03 455.277 4596.87 459.595C4598.71 463.914 4601.61 467.839 4605.36 471.104C4618.67 482.101 4638.1 485.539 4660.26 488.613L4658.35 498.905C4646.58 497.557 4634.97 495.3 4623.66 492.161Z" fill="#2F2E41"/>
<path d="M4513.16 313.689L4511.58 324.023L4575.97 331.375L4577.55 321.041L4513.16 313.689Z" fill="#2F2E41"/>
<path d="M4716.41 336.888L4714.83 347.223L4779.22 354.574L4780.8 344.24L4716.41 336.888Z" fill="#2F2E41"/>
<path d="M5046.9 1542.39H4528.34C4514.75 1542.37 4501.72 1537.7 4492.11 1529.39C4482.51 1521.09 4477.1 1509.82 4477.09 1498.08L4585.65 778.374C4585.73 766.681 4591.17 755.492 4600.77 747.252C4610.37 739.013 4623.35 734.393 4636.87 734.401H4820.9C4894.41 734.473 4964.88 759.749 5016.85 804.683C5068.83 849.617 5098.07 910.54 5098.15 974.086V1498.08C5098.13 1509.82 5092.73 1521.09 5083.12 1529.39C5073.51 1537.7 5060.48 1542.37 5046.9 1542.39Z" fill="#2F2E41"/>
<path d="M5493.04 1258.79C5496.24 1264.72 5497.4 1271.32 5496.36 1277.8C5495.33 1284.28 5492.15 1290.36 5487.21 1295.32L5429.03 1353.54C5425.66 1356.91 5421.56 1359.67 5416.96 1361.66C5412.36 1363.66 5407.35 1364.86 5402.22 1365.18C5397.09 1365.5 5391.93 1364.95 5387.04 1363.55C5382.16 1362.15 5377.64 1359.93 5373.75 1357.03L4846.14 962.953C4837.82 956.742 4831 949.175 4826.06 940.685C4821.12 932.194 4818.17 922.946 4817.37 913.469C4816.57 903.991 4817.93 894.47 4821.39 885.45C4824.84 876.429 4830.32 868.085 4837.51 860.894C4844.69 853.703 4853.45 847.807 4863.27 843.541C4873.09 839.276 4883.79 836.725 4894.75 836.034C4905.72 835.344 4916.73 836.527 4927.16 839.516C4937.6 842.506 4947.25 847.243 4955.56 853.457L5483.17 1247.53C5487.35 1250.64 5490.71 1254.48 5493.04 1258.79Z" fill="#5F0A87"/>
<path d="M5376.59 1128.75C5379.79 1134.67 5380.95 1141.27 5379.91 1147.75C5378.88 1154.23 5375.7 1160.32 5370.76 1165.27L5271.38 1264.71C5264.57 1271.5 5254.93 1275.69 5244.57 1276.34C5234.21 1276.99 5223.97 1274.07 5216.1 1268.2L4782.86 944.61C4778.96 941.701 4775.77 938.157 4773.46 934.181C4771.15 930.205 4769.76 925.875 4769.39 921.437C4769.01 916.999 4769.65 912.541 4771.27 908.317C4772.89 904.093 4775.46 900.186 4778.82 896.819L4878.2 797.377C4881.56 794.01 4885.66 791.249 4890.26 789.251C4894.86 787.253 4899.87 786.059 4905 785.735C4910.14 785.411 4915.29 785.965 4920.18 787.364C4925.06 788.763 4929.58 790.981 4933.48 793.89L5366.72 1117.48C5370.89 1120.59 5374.26 1124.43 5376.59 1128.75Z" fill="#2F2E41"/>
<path d="M4795.87 243.712C4754.76 214.303 4699.81 242.118 4653.32 238.17C4608.84 234.393 4573.04 200.555 4563.29 164.142C4551.91 121.659 4576.58 78.5058 4613.74 51.2918C4654.44 21.4858 4709.09 12.2236 4761.16 16.7591C4820.85 21.9573 4875.83 45.0598 4925.34 73.2829C4973.1 99.6574 5017.18 130.721 5056.68 165.855C5092.08 198.389 5122.33 237.366 5132.69 281.758C5142.1 322.101 5136.58 367.069 5109.65 401.819C5095.35 419.638 5075.99 433.971 5053.42 443.437C5029.91 453.904 5004.75 461.523 4982 473.295C4947.61 491.093 4914.6 527.367 4926.31 564.36C4928.82 572.442 4933.59 579.865 4940.2 585.977C4948.15 593.317 4961.97 583.219 4954 575.86C4940.01 562.935 4940.17 545.389 4947.12 529.569C4955.42 511.736 4970.47 496.866 4989.82 487.397C5013.63 475.103 5040.05 467.322 5064.48 456.079C5087.88 445.791 5108.05 430.767 5123.29 412.288C5152.04 376.326 5159.86 330.01 5152.22 287.407C5143.96 241.305 5115.57 199.755 5080.36 165.124C5042.04 127.435 4995.3 95.7677 4947.63 67.4122C4896.48 36.9862 4840.15 11.4781 4778.25 2.9343C4724.6 -4.47184 4666.75 1.58065 4620.54 27.5421C4577.41 51.7753 4544.82 92.778 4542.49 138.035C4541.74 158.621 4547.36 179.007 4558.76 197.094C4570.15 215.181 4586.92 230.317 4607.33 240.942C4628.26 251.309 4652.42 255.732 4676.42 253.589C4702.08 251.746 4727.64 244.522 4753.54 245.985C4765.25 246.407 4776.49 250.119 4785.54 256.557C4794.53 262.983 4804.78 250.085 4795.87 243.712Z" fill="#2F2E41"/>
<path d="M4434.27 1629.35C4434.38 1628.77 4434.51 1628.18 4434.66 1627.59C4435.73 1623.24 4437.79 1619.11 4440.72 1615.45C4443.65 1611.79 4447.39 1608.67 4451.73 1606.27L4526.51 1564.56C4535.25 1559.7 4545.86 1558.04 4556.02 1559.93C4566.18 1561.83 4575.05 1567.13 4580.69 1574.67L4811.4 1883.89C4817.03 1891.45 4818.96 1900.62 4816.77 1909.41C4814.58 1918.19 4808.44 1925.86 4799.71 1930.73L4724.92 1972.44C4716.18 1977.3 4705.57 1978.96 4695.41 1977.07C4685.25 1975.17 4676.38 1969.87 4670.74 1962.33L4440.03 1653.11C4434.76 1646.09 4432.71 1637.62 4434.27 1629.35Z" fill="#2F2E41"/>
</g>
<defs>
<clipPath id="clip0_88_84">
<rect width="5496.73" height="2352.98" fill="white"/>
</clipPath>
</defs>
</svg>
