<svg width="35" height="35" viewBox="0 0 35 35" fill="none" xmlns="http://www.w3.org/2000/svg">
<path fill-rule="evenodd" clip-rule="evenodd" d="M17.5 0C7.83502 0 0 7.83502 0 17.5C0 27.165 7.83502 35 17.5 35C27.165 35 35 27.165 35 17.5C35 7.83502 27.165 0 17.5 0ZM24.5854 25.6004C25.1382 25.0471 25.1382 24.1864 24.5854 23.6331L18.9655 18.0077L24.5854 12.3823C25.1382 11.829 25.1382 10.9683 24.5854 10.415C24.0326 9.86166 23.1728 9.86166 22.62 10.415L17 16.0403L11.38 10.415C10.8273 9.86166 9.96738 9.86166 9.41458 10.415C8.86182 10.9683 8.86182 11.829 9.41458 12.3823L15.0345 18.0077L9.41458 23.6331C8.86182 24.1864 8.86182 25.0471 9.41458 25.6004C9.69098 25.877 10.0288 26 10.3973 26C10.7658 26 11.1036 25.877 11.38 25.6004L17 19.975L22.62 25.6004C22.8964 25.877 23.2342 26 23.6027 26C23.9712 26 24.309 25.877 24.5854 25.6004Z" fill="#FF0000"/>
</svg>
