<svg width="14" height="14" viewBox="0 0 14 14" fill="none" xmlns="http://www.w3.org/2000/svg">
<path d="M6.83047 6.83047L0 13.6582V13.7758C0 13.9289 0.0710937 14 0.224219 14H0.341797L7.16953 7.16953L14 0.341797V0.224219C14 0.144922 13.9836 0.0929689 13.9453 0.0546875C13.907 0.0164061 13.8551 0 13.7758 0H13.6582L6.83047 6.83047Z" fill="#F0D7FF"/>
<path d="M3.60117 0.861328C3.42617 1.21406 3.28125 1.50938 3.28125 1.51758C3.28125 1.52578 3.57656 1.53125 3.9375 1.53125C4.29844 1.53125 4.59375 1.52578 4.59375 1.51758C4.59375 1.49023 3.95117 0.21875 3.9375 0.21875C3.9293 0.21875 3.77891 0.508594 3.60117 0.861328Z" fill="#F0D7FF"/>
<path d="M1.29062 1.31523C1.29882 1.33711 1.40546 1.65703 1.52851 2.02891C1.65429 2.40352 1.76366 2.70703 1.77187 2.70703C1.79648 2.70703 2.70702 1.79648 2.70702 1.77188C2.70702 1.76367 2.40351 1.6543 2.03163 1.52852C1.65702 1.40547 1.3371 1.29883 1.31523 1.29062C1.29062 1.27969 1.27968 1.29062 1.29062 1.31523Z" fill="#F0D7FF"/>
<path d="M5.86785 1.51758C5.49324 1.64609 5.18152 1.75547 5.17331 1.76367C5.15691 1.78008 6.07019 2.70703 6.103 2.70703C6.1112 2.70703 6.22058 2.40352 6.34636 2.02891C6.46941 1.65703 6.57605 1.33711 6.58425 1.31797C6.58972 1.30156 6.58425 1.28516 6.57331 1.28789C6.55964 1.28789 6.24245 1.3918 5.86785 1.51758Z" fill="#F0D7FF"/>
<path d="M3.45903 2.23669C2.84653 2.4199 2.38716 2.89021 2.2313 3.49177C2.17388 3.71052 2.17388 4.16443 2.2313 4.38591C2.38716 4.98748 2.90942 5.50701 3.50278 5.64646C3.727 5.69841 4.1481 5.69841 4.36958 5.64646C4.97661 5.50427 5.48521 4.99841 5.6438 4.38318C5.70122 4.16443 5.70122 3.71052 5.6438 3.48904C5.58364 3.25935 5.41138 2.93669 5.25005 2.75349C5.07505 2.55935 4.78247 2.36521 4.53091 2.27498C4.26841 2.17927 3.71606 2.16013 3.45903 2.23669Z" fill="#F0D7FF"/>
<path d="M0.853125 3.60391C0.505859 3.77891 0.21875 3.9293 0.21875 3.9375C0.21875 3.95117 1.49023 4.59375 1.51758 4.59375C1.52578 4.59375 1.53125 4.29844 1.53125 3.9375C1.53125 3.57656 1.52305 3.28125 1.51211 3.28398C1.49844 3.28398 1.20312 3.42891 0.853125 3.60391Z" fill="#F0D7FF"/>
<path d="M6.34375 3.9375C6.34375 4.29844 6.34922 4.59375 6.35742 4.59375C6.38477 4.59375 7.65625 3.95117 7.65625 3.9375C7.65625 3.92383 6.38477 3.28125 6.35742 3.28125C6.34922 3.28125 6.34375 3.57656 6.34375 3.9375Z" fill="#F0D7FF"/>
<path d="M1.52022 5.87066C1.3917 6.2562 1.29053 6.57613 1.29327 6.58159C1.3042 6.59253 2.68233 6.13316 2.70147 6.11128C2.71788 6.09488 1.8046 5.16792 1.77178 5.16792C1.76358 5.16792 1.64874 5.48511 1.52022 5.87066Z" fill="#F0D7FF"/>
<path d="M5.61922 5.63277C5.36493 5.88706 5.16258 6.10308 5.17352 6.11128C5.19266 6.13316 6.57078 6.59253 6.58172 6.58159C6.59539 6.56519 6.12235 5.16792 6.10321 5.16792C6.09227 5.16792 5.87625 5.37574 5.61922 5.63277Z" fill="#F0D7FF"/>
<path d="M10.4781 5.74219C10.3469 5.82422 10.2812 5.94727 10.2812 6.125C10.2812 6.39844 10.4453 6.5625 10.7188 6.5625C10.9922 6.5625 11.1562 6.39844 11.1562 6.125C11.1562 5.85156 10.9922 5.6875 10.7188 5.6875C10.6176 5.6875 10.5383 5.70391 10.4781 5.74219Z" fill="#F0D7FF"/>
<path d="M3.28125 6.35742C3.28125 6.38477 3.92383 7.65625 3.9375 7.65625C3.95117 7.65625 4.59375 6.38477 4.59375 6.35742C4.59375 6.34922 4.29844 6.34375 3.9375 6.34375C3.57656 6.34375 3.28125 6.34922 3.28125 6.35742Z" fill="#F0D7FF"/>
<path d="M8.9168 7.53867C8.77461 7.94063 8.39727 8.32617 8.00625 8.46836C7.93516 8.49297 7.875 8.52305 7.875 8.53125C7.875 8.53945 7.93516 8.56953 8.00625 8.59414C8.39727 8.73633 8.77461 9.12187 8.9168 9.52109C8.93594 9.57852 8.96055 9.625 8.96875 9.625C8.97695 9.625 9.00156 9.57852 9.0207 9.52109C9.16289 9.12187 9.54023 8.73633 9.93125 8.59414C10.0023 8.56953 10.0625 8.53945 10.0625 8.53125C10.0625 8.52305 10.0023 8.49297 9.93125 8.46836C9.54023 8.32617 9.16289 7.94063 9.0207 7.53867C9.00156 7.48398 8.97695 7.4375 8.96875 7.4375C8.96055 7.4375 8.93594 7.48398 8.9168 7.53867Z" fill="#F0D7FF"/>
<path d="M11.4789 7.82578C11.5336 8.01172 11.5473 8.1293 11.5582 8.46289C11.5691 8.8375 11.5637 8.89766 11.5008 9.14648C11.4188 9.46094 11.2602 9.8082 11.0906 10.0461C10.9512 10.2402 10.6258 10.5602 10.4398 10.6887C10.2211 10.8336 9.87383 10.9895 9.58398 11.0633C9.33516 11.1262 9.275 11.1316 8.90039 11.1207C8.5668 11.1098 8.44922 11.0961 8.26602 11.0414C8.14023 11.0031 8.03906 10.984 8.03906 10.9949C8.03906 11.0086 8.06914 11.0852 8.10469 11.1672C8.34258 11.7004 8.84297 12.2035 9.39258 12.4578C9.78359 12.6383 9.9668 12.6738 10.5 12.6738C10.9184 12.6738 11.0059 12.6656 11.1945 12.6109C12.1078 12.3457 12.7832 11.6703 13.0484 10.757C13.1031 10.5684 13.1113 10.4809 13.1113 10.0625C13.1113 9.5293 13.0758 9.34609 12.8953 8.95508C12.6437 8.41094 12.157 7.92148 11.6156 7.66992C11.5363 7.63164 11.457 7.60156 11.4406 7.60156C11.4215 7.60156 11.4352 7.68633 11.4789 7.82578Z" fill="#F0D7FF"/>
<path d="M5.88437 11.4297C5.75312 11.5117 5.6875 11.6348 5.6875 11.8125C5.6875 11.9902 5.75312 12.1133 5.88437 12.1953C6.00742 12.2691 6.24258 12.2691 6.36562 12.1953C6.49687 12.1133 6.5625 11.9902 6.5625 11.8125C6.5625 11.6348 6.49687 11.5117 6.36562 11.4297C6.24258 11.3558 6.00742 11.3558 5.88437 11.4297Z" fill="#F0D7FF"/>
</svg>
