<svg width="36" height="35" viewBox="0 0 36 35" fill="none" xmlns="http://www.w3.org/2000/svg">
<path d="M34.1258 29.8223C35.3362 31.0327 35.3362 32.9155 34.1258 34.1258C33.5207 34.731 32.781 35 31.9741 35C31.1671 35 30.4275 34.731 29.8223 34.1258L17.5168 21.8204L5.21134 34.1258C4.60615 34.731 3.86648 35 3.05956 35C2.25264 35 1.51297 34.731 0.907781 34.1258C-0.302594 32.9155 -0.302594 31.0327 0.907781 29.8223L13.2133 17.5168L0.907781 5.21134C-0.302594 4.00096 -0.302594 2.11816 0.907781 0.907781C2.11816 -0.302594 4.00096 -0.302594 5.21134 0.907781L17.5168 13.2133L29.8223 0.907781C31.0327 -0.302594 32.9155 -0.302594 34.1258 0.907781C35.3362 2.11816 35.3362 4.00096 34.1258 5.21134L21.8204 17.5168L34.1258 29.8223Z" fill="black"/>
</svg>
