<svg width="69" height="69" viewBox="0 0 69 69" fill="none" xmlns="http://www.w3.org/2000/svg">
<path d="M31.716 20.532H37.172L40.472 41.96L42.936 20.532H48.92L44.3 49H37.304L34.444 31.532L31.584 49H24.588L19.968 20.532H25.952L28.416 41.96L31.716 20.532Z" fill="white"/>
<path fill-rule="evenodd" clip-rule="evenodd" d="M34.5 69C42.3956 69 49.6717 66.3477 55.486 61.8854C56.9026 60.7981 56.917 58.7224 55.6348 57.4793V57.4793C54.4517 56.3323 52.5902 56.3193 51.267 57.3014C46.4432 60.8819 40.4689 63 34 63C26.1569 63 19.041 59.8865 13.8209 54.828C12.788 53.8271 11.1793 53.6327 10.0183 54.4817V54.4817C8.7428 55.4143 8.50044 57.233 9.59401 58.3735C15.8733 64.9226 24.7105 69 34.5 69ZM4.10604 50.8377C4.83062 52.1828 6.5777 52.4986 7.81104 51.5968V51.5968C8.96205 50.7551 9.23289 49.1613 8.54793 47.9107C6.28605 43.781 5 39.0407 5 34C5 27.6145 7.06381 21.711 10.5608 16.9202C11.3114 15.8918 11.2538 14.4533 10.3397 13.567V13.567C9.34926 12.6069 7.74941 12.6683 6.91976 13.7704C2.57523 19.5415 0 26.72 0 34.5C0 40.4109 1.48649 45.9746 4.10604 50.8377ZM69 34.5C69 41.9902 66.613 48.923 62.5582 54.579C61.5172 56.0312 59.4413 56.1115 58.1583 54.8678V54.8678C56.9766 53.7221 56.905 51.8644 57.8433 50.5121C61.0946 45.826 63 40.1355 63 34C63 29.3961 61.9272 25.0428 60.0179 21.1764C59.355 19.8341 59.6681 18.1768 60.8766 17.2932V17.2932C62.2015 16.3244 64.0783 16.6555 64.8597 18.0988C67.5005 22.977 69 28.5634 69 34.5ZM58.7868 14.3224C60.071 13.3833 60.3079 11.5491 59.1969 10.4103C52.9313 3.98777 44.1814 0 34.5 0C26.3574 0 18.8736 2.82087 12.9727 7.53867C11.8944 8.40073 11.8811 10.0034 12.8723 10.9643V10.9643C13.785 11.8492 15.2223 11.8632 16.2263 11.0833C21.1355 7.27031 27.3026 5 34 5C42.2108 5 49.6246 8.41232 54.9007 13.8962C55.9279 14.9638 57.5909 15.1969 58.7868 14.3224V14.3224Z" fill="white"/>
</svg>
