<svg width="14" height="15" viewBox="0 0 14 15" fill="none" xmlns="http://www.w3.org/2000/svg">
<path d="M0.82852 0.972187C0.462112 1.10349 0.18047 1.38798 0.0519534 1.76C0.00273439 1.90497 0 2.05542 0 6.68927C0 11.3231 0.00273439 11.4736 0.0519534 11.6185C0.18047 11.996 0.464846 12.2805 0.839457 12.4091C0.987114 12.4583 1.09649 12.4611 4.36135 12.4611H7.72738L7.79574 12.3735C7.90512 12.2285 7.92699 12.1793 7.92973 12.0863C7.92973 11.9659 6.71019 2.09098 6.66917 1.90224C6.5762 1.45636 6.23987 1.08981 5.80511 0.95851C5.693 0.922949 5.30745 0.917479 3.32228 0.920214C1.10196 0.920214 0.962505 0.925685 0.82852 0.972187ZM4.30666 3.91006C4.40237 3.97297 4.44885 4.02494 4.48713 4.11795C4.53362 4.22463 5.33206 8.24847 5.33206 8.36883C5.33206 8.4974 5.24729 8.64511 5.14065 8.69982C4.95198 8.79556 4.68674 8.71897 4.60744 8.5439C4.58284 8.49466 4.50627 8.1582 4.43518 7.79712L4.30393 7.14062H3.7051H3.10627L2.97501 7.79712C2.90392 8.1582 2.82736 8.49466 2.80275 8.5439C2.72345 8.71897 2.45822 8.79556 2.26954 8.69982C2.1629 8.64511 2.07814 8.4974 2.07814 8.36883C2.07814 8.25668 2.87384 4.23557 2.92033 4.11795C2.95861 4.02221 3.08439 3.90185 3.16916 3.8827C3.20744 3.8745 3.25392 3.86355 3.26759 3.85535C3.284 3.84988 3.50549 3.84988 3.75978 3.85261C4.16721 3.85808 4.2383 3.86355 4.30666 3.91006Z" fill="#F0D7FF"/>
<path d="M3.5957 4.69852C3.58203 4.74227 3.28125 6.25712 3.28125 6.28446C3.28125 6.29813 3.47266 6.30634 3.70508 6.30634C4.02774 6.30634 4.12891 6.29813 4.12891 6.27079C4.12618 6.25438 4.05508 5.88797 3.97032 5.45868L3.81172 4.67937L3.71055 4.67117C3.64492 4.6657 3.60391 4.67391 3.5957 4.69852Z" fill="#F0D7FF"/>
<path d="M7.66983 3.49429C7.71358 3.75689 8.72257 11.9304 8.72257 12.0343C8.72257 12.2258 8.67062 12.431 8.57765 12.6088C8.52022 12.7155 8.16475 13.1449 7.55772 13.8397L6.62256 14.9093L9.81086 14.9175C12.6956 14.923 13.0128 14.9202 13.1386 14.8792C13.5187 14.7561 13.8167 14.4634 13.948 14.0832C13.9999 13.9327 13.9999 13.8151 13.9999 9.17854C13.9999 4.5912 13.9972 4.4216 13.948 4.27662C13.8687 4.04411 13.814 3.95384 13.639 3.7733C13.5242 3.65294 13.423 3.57909 13.2808 3.51344L13.0839 3.42043L10.3687 3.41222L7.65342 3.40675L7.66983 3.49429ZM11.2984 6.38018C11.4406 6.46498 11.4898 6.58261 11.5062 6.86709L11.5198 7.12149L12.1925 7.13243C12.8077 7.14064 12.8734 7.14611 12.9554 7.19535C13.0812 7.27194 13.1523 7.39503 13.1523 7.54001C13.1523 7.75064 13.0046 7.90109 12.7695 7.93392L12.6437 7.95033L12.5671 8.16096C12.3866 8.65334 12.1132 9.14845 11.7988 9.54783L11.6484 9.73931L11.7632 9.84599C11.8288 9.90344 12.0613 10.0922 12.28 10.2618C12.4988 10.4314 12.6929 10.6037 12.7093 10.642C12.7941 10.8253 12.7175 11.0769 12.5534 11.1617C12.4577 11.211 12.2718 11.2165 12.1898 11.1727C12.1187 11.1344 11.6073 10.7377 11.323 10.4998C11.2081 10.404 11.107 10.3274 11.0988 10.3274C11.0905 10.3274 10.9839 10.4122 10.8663 10.5134C10.5573 10.7788 10.1144 11.1344 10.0433 11.1699C9.95851 11.2165 9.77257 11.211 9.67687 11.1617C9.51281 11.0769 9.43624 10.8253 9.52101 10.642C9.53742 10.6037 9.72062 10.4368 9.92297 10.2727C10.128 10.1113 10.355 9.92258 10.4261 9.85693L10.5573 9.73931L10.4179 9.56151C10.1472 9.21958 9.81632 8.60957 9.66046 8.16643L9.5839 7.95033L9.45812 7.93392C9.2257 7.90109 9.07804 7.75064 9.07804 7.54001C9.07804 7.39503 9.14913 7.27194 9.27492 7.19535C9.35695 7.14611 9.42257 7.14064 10.0241 7.13243L10.6831 7.12149L10.6968 6.86709C10.7132 6.58534 10.757 6.48139 10.8991 6.38565C11.0003 6.32 11.189 6.31727 11.2984 6.38018Z" fill="#F0D7FF"/>
<path d="M10.418 7.95897C10.418 7.98358 10.5137 8.19686 10.6148 8.39921C10.7461 8.66171 11.0715 9.15663 11.107 9.1457C11.1645 9.12655 11.4981 8.61796 11.6484 8.31718C11.7387 8.13671 11.8125 7.97811 11.8125 7.96717C11.8125 7.95624 11.4981 7.94803 11.1152 7.94803C10.7324 7.94803 10.418 7.9535 10.418 7.95897Z" fill="#F0D7FF"/>
<path d="M4.78516 13.3179C4.78516 13.3371 4.8043 13.5011 4.82617 13.6789C4.88086 14.089 4.98477 14.3324 5.20352 14.5511C5.3293 14.6769 5.56993 14.8355 5.58907 14.8082C5.59454 14.8027 5.90626 14.4582 6.28634 14.0398L6.9754 13.2824H5.87891C5.00391 13.2824 4.78516 13.2906 4.78516 13.3179Z" fill="#F0D7FF"/>
</svg>
