<svg width="68" height="69" viewBox="0 0 68 69" fill="none" xmlns="http://www.w3.org/2000/svg">
<path d="M32.6935 22.0592H37.2815L40.0565 40.0782L42.1285 22.0592H47.1605L43.2755 45.9982H37.3925L34.9875 31.3092L32.5825 45.9982H26.6995L22.8145 22.0592H27.8465L29.9185 40.0782L32.6935 22.0592Z" fill="#210124"/>
<path fill-rule="evenodd" clip-rule="evenodd" d="M31.329 68.8522C22.952 68.0808 14.8349 64.2622 8.78455 57.497C1.56252 49.4218 -1.15999 38.8872 0.445653 28.9657L7.9133 30.5553C6.9619 38.0477 9.14176 45.8957 14.5718 51.9672C19.1714 57.1102 25.2972 60.0773 31.6532 60.7962L31.329 68.8522ZM8.61106 26.9909L1.21299 25.4161C2.90154 19.2043 6.34589 13.3932 11.5015 8.78236C17.9799 2.98834 26.0414 0.09038 34.0993 0L33.8184 6.98173C27.7015 7.17772 21.6168 9.44362 16.6981 13.8427C12.6272 17.4835 9.91954 22.0805 8.61106 26.9909ZM34.9578 68.9956C42.9969 68.8924 51.0358 65.9944 57.4992 60.2139C62.7278 55.5377 66.1964 49.627 67.8584 43.3159L60.5522 41.7607C59.1697 46.3635 56.541 50.6549 52.6963 54.0935C47.6985 58.5632 41.497 60.8307 35.281 60.9622L34.9578 68.9956Z" fill="#210124"/>
</svg>
