<svg width="20" height="20" viewBox="0 0 20 20" fill="none" xmlns="http://www.w3.org/2000/svg">
<path d="M6.90305 0.0574939C5.57543 0.252161 4.26337 0.805015 3.15377 1.64598C2.74886 1.94966 1.97019 2.72832 1.65873 3.14102C1.17595 3.77953 0.662031 4.73339 0.432324 5.41084C-0.778505 9.02775 0.615311 12.9094 3.84678 14.9184C6.42417 16.5146 9.82306 16.4952 12.3654 14.8639L12.6613 14.6731L13.148 15.1714C13.4166 15.444 14.5184 16.5886 15.6008 17.7138C17.8356 20.0381 17.7343 19.9525 18.2794 19.9213C18.6103 19.9018 18.7583 19.8396 18.9646 19.6293C19.1671 19.4269 19.2644 19.1855 19.2644 18.8779C19.2644 18.4964 19.171 18.325 18.6765 17.815C17.0413 16.1253 14.2693 13.2326 14.2693 13.2131C14.2693 13.2014 14.3549 13.0846 14.46 12.9483C15.0985 12.1346 15.593 11.1146 15.8694 10.0439C16.4885 7.6534 15.9784 5.15777 14.4561 3.13713C14.1525 2.73222 13.3699 1.94966 12.9533 1.6343C11.832 0.785548 10.5472 0.252161 9.16119 0.0536006C8.65506 -0.0203729 7.41698 -0.0164796 6.90305 0.0574939ZM8.85751 2.17936C10.0567 2.32731 11.2208 2.89574 12.1435 3.77174C13.9967 5.54321 14.5029 8.23351 13.4166 10.5656C12.9183 11.6285 12.0306 12.5863 10.9794 13.1897C9.47266 14.0541 7.64279 14.1981 5.98812 13.5869C3.55089 12.6875 1.93905 10.1646 2.16097 7.59111C2.21158 7.02268 2.28945 6.65281 2.46075 6.14668C3.29393 3.6783 5.69223 2.01974 8.27351 2.12875C8.41367 2.13264 8.67452 2.156 8.85751 2.17936Z" fill="#5F0A87"/>
</svg>
