<svg width="3026" height="2422" viewBox="0 0 3026 2422" fill="none" xmlns="http://www.w3.org/2000/svg">
<g clip-path="url(#clip0_74_51)">
<path d="M2632.93 217.845C2624.47 155.777 2613.86 89.1377 2570.08 44.3321C2556.19 30.1153 2539.56 18.8587 2521.2 11.2409C2502.85 3.62307 2483.13 -0.198194 2463.26 0.00751906C2443.38 0.213232 2423.76 4.4417 2405.56 12.4379C2387.36 20.4341 2370.97 32.0324 2357.38 46.5336C2325.51 80.5291 2311.44 128.264 2310.15 174.842C2308.86 221.42 2319.24 267.481 2330.75 312.634C2391.65 313.85 2452.1 301.952 2507.99 277.746C2521.69 271.06 2535.9 265.48 2550.49 261.062C2565.26 257.304 2575.78 266.761 2589.52 273.356L2597.06 258.918C2603.23 270.406 2622.35 267.001 2629.28 255.955C2636.21 244.911 2634.69 230.766 2632.93 217.845Z" fill="#2F2E41"/>
<path d="M2378.57 479.914L2396.2 389.836L2263.99 332.597L2027.61 219.354C2025.97 208.846 2021.17 199.086 2013.85 191.365C2006.54 183.644 1997.05 178.325 1986.65 176.113C1976.24 173.901 1965.41 174.899 1955.59 178.976C1945.77 183.052 1937.41 190.015 1931.63 198.944C1925.85 207.872 1922.92 218.345 1923.22 228.977C1923.52 239.609 1927.04 249.899 1933.32 258.486C1939.59 267.073 1948.33 273.552 1958.37 277.066C1968.41 280.581 1979.27 280.964 1989.54 278.167L2214.6 417.059L2378.57 479.914Z" fill="#FFB8B8"/>
<path d="M2289.81 464.674L2385.57 366.78L2387.47 367.356C2388.66 367.717 2507.64 403.989 2583.49 440.848C2592.06 444.696 2599.69 450.369 2605.85 457.469C2612 464.569 2616.54 472.927 2619.13 481.959C2622.91 494.606 2622.91 508.079 2619.13 520.726C2615.36 533.372 2607.97 544.641 2597.88 553.148C2587.51 562.433 2574.68 568.534 2560.93 570.723C2547.18 572.912 2533.1 571.095 2520.35 565.491L2289.81 464.674Z" fill="#5F0A87"/>
<path d="M2289.52 895.061L2558.8 967.016L2613.17 712.634L2366.01 636.132L2289.52 895.061Z" fill="#FFB8B8"/>
<path d="M2588.94 826.016L2325.89 765.521L2275.51 643.434C2271.41 626.007 2272.41 607.769 2278.38 590.892C2284.35 574.015 2295.05 559.209 2309.2 548.239L2405.3 467.097L2456.83 401.281L2451.22 366.402C2450.21 359.431 2451.68 352.328 2455.35 346.322C2459.03 340.315 2464.69 335.782 2471.36 333.505L2540.02 308.88C2547.61 306.042 2556 306.194 2563.48 309.306C2570.97 312.418 2576.99 318.257 2580.33 325.641L2587.6 342.481C2587.6 342.481 2618.66 357.093 2636.16 365.312C2645.17 369.408 2653.21 375.361 2659.76 382.78C2666.31 390.199 2671.22 398.917 2674.16 408.364C2700.96 494.958 2693.73 588.508 2653.96 669.962L2588.94 826.016Z" fill="#5F0A87"/>
<path d="M249.524 2122.01L122.336 2087.97C103.635 2021.4 101.466 1951.27 116.019 1883.68C171.508 1993.36 320.533 2014.04 408.815 2099.58C436.145 2126.47 457.074 2159.16 470.051 2195.24C483.028 2231.32 487.72 2269.85 483.78 2307.99L514.248 2396.26C452.404 2393.81 391.825 2377.99 336.685 2349.87C281.546 2321.76 233.156 2282.03 194.851 2233.42C173.632 2205.93 155.958 2175.88 142.247 2143.98C195.468 2136.18 249.524 2122.01 249.524 2122.01Z" fill="#F2F2F2"/>
<path d="M1829.69 2421.06H583.077C549.669 2421.02 517.639 2407.73 494.015 2384.11C470.391 2360.49 457.103 2328.46 457.065 2295.05V644.397C457.103 610.988 470.392 578.958 494.015 555.334C517.639 531.711 549.669 518.422 583.078 518.384H1829.69C1863.09 518.422 1895.12 531.71 1918.75 555.334C1942.37 578.958 1955.66 610.988 1955.7 644.397V2295.05C1955.66 2328.46 1942.37 2360.49 1918.75 2384.11C1895.12 2407.73 1863.09 2421.02 1829.69 2421.06Z" fill="#E6E6E6"/>
<path d="M1353.89 2318.89H670.704C640.284 2318.85 611.12 2306.75 589.61 2285.24C568.1 2263.73 556 2234.57 555.966 2204.15V735.295C556.001 704.875 568.1 675.711 589.61 654.201C611.12 632.691 640.284 620.591 670.704 620.557H1742.06C1772.48 620.591 1801.64 632.691 1823.15 654.201C1844.66 675.711 1856.76 704.875 1856.8 735.295V1815.98C1856.64 1949.32 1803.61 2077.14 1709.33 2171.43C1615.05 2265.71 1487.22 2318.74 1353.89 2318.89Z" fill="white"/>
<path d="M1635.18 902.55H777.579C773.906 902.555 770.268 901.836 766.873 900.435C763.478 899.033 760.392 896.977 757.792 894.383C755.191 891.789 753.127 888.708 751.718 885.317C750.308 881.925 749.58 878.289 749.575 874.616C749.571 870.943 750.289 867.305 751.691 863.91C753.092 860.515 755.148 857.429 757.742 854.829C760.336 852.228 763.417 850.164 766.809 848.754C770.2 847.344 773.836 846.616 777.509 846.612H1635.18C1642.6 846.603 1649.72 849.54 1654.97 854.779C1660.22 860.018 1663.18 867.128 1663.19 874.546C1663.2 881.964 1660.26 889.082 1655.02 894.334C1649.78 899.585 1642.67 902.541 1635.25 902.55H1635.18Z" fill="#5F0A87"/>
<path d="M1635.18 1013.07H777.579C770.161 1013.07 763.046 1010.12 757.801 1004.88C752.555 999.633 749.608 992.518 749.608 985.1C749.608 977.682 752.555 970.567 757.801 965.322C763.046 960.076 770.161 957.129 777.579 957.129H1635.18C1642.6 957.129 1649.72 960.076 1654.96 965.322C1660.21 970.567 1663.15 977.682 1663.15 985.1C1663.15 992.518 1660.21 999.633 1654.96 1004.88C1649.72 1010.12 1642.6 1013.07 1635.18 1013.07Z" fill="#5F0A87"/>
<path d="M1149.33 1123.59H777.579C770.161 1123.59 763.046 1120.64 757.801 1115.4C752.555 1110.15 749.608 1103.04 749.608 1095.62C749.608 1088.2 752.555 1081.09 757.801 1075.84C763.046 1070.6 770.161 1067.65 777.579 1067.65H1149.33C1156.75 1067.65 1163.86 1070.6 1169.11 1075.84C1174.35 1081.09 1177.3 1088.2 1177.3 1095.62C1177.3 1103.04 1174.35 1110.15 1169.11 1115.4C1163.86 1120.64 1156.75 1123.59 1149.33 1123.59Z" fill="#5F0A87"/>
<path d="M1635.18 1355.06H777.579C770.161 1355.07 763.044 1352.13 757.792 1346.9C752.54 1341.66 749.584 1334.55 749.575 1327.13C749.566 1319.71 752.504 1312.59 757.742 1307.34C762.981 1302.09 770.092 1299.13 777.509 1299.12H1635.18C1642.6 1299.12 1649.72 1302.05 1654.97 1307.29C1660.22 1312.53 1663.18 1319.64 1663.19 1327.06C1663.2 1334.48 1660.26 1341.59 1655.02 1346.85C1649.78 1352.1 1642.67 1355.05 1635.25 1355.06H1635.18Z" fill="#E4E4E4"/>
<path d="M1635.18 1465.58H777.579C770.161 1465.58 763.046 1462.64 757.801 1457.39C752.555 1452.15 749.608 1445.03 749.608 1437.61C749.608 1430.19 752.555 1423.08 757.801 1417.83C763.046 1412.59 770.161 1409.64 777.579 1409.64H1635.18C1642.6 1409.64 1649.72 1412.59 1654.96 1417.83C1660.21 1423.08 1663.15 1430.19 1663.15 1437.61C1663.15 1445.03 1660.21 1452.15 1654.96 1457.39C1649.72 1462.64 1642.6 1465.58 1635.18 1465.58Z" fill="#E4E4E4"/>
<path d="M1149.33 1576.1H777.579C770.161 1576.1 763.046 1573.16 757.801 1567.91C752.555 1562.67 749.608 1555.55 749.608 1548.13C749.608 1540.72 752.555 1533.6 757.801 1528.36C763.046 1523.11 770.161 1520.16 777.579 1520.16H1149.33C1156.75 1520.16 1163.86 1523.11 1169.11 1528.36C1174.35 1533.6 1177.3 1540.72 1177.3 1548.13C1177.3 1555.55 1174.35 1562.67 1169.11 1567.91C1163.86 1573.16 1156.75 1576.1 1149.33 1576.1Z" fill="#E4E4E4"/>
<path d="M1635.18 1807.58H777.579C770.161 1807.59 763.044 1804.65 757.792 1799.41C752.54 1794.17 749.584 1787.06 749.575 1779.64C749.566 1772.22 752.504 1765.11 757.742 1759.85C762.981 1754.6 770.092 1751.65 777.509 1751.64H1635.18C1642.6 1751.63 1649.72 1754.57 1654.97 1759.8C1660.22 1765.04 1663.18 1772.15 1663.19 1779.57C1663.2 1786.99 1660.26 1794.11 1655.02 1799.36C1649.78 1804.61 1642.67 1807.57 1635.25 1807.58H1635.18Z" fill="#E4E4E4"/>
<path d="M1635.18 1918.1H777.579C770.161 1918.1 763.046 1915.15 757.801 1909.9C752.555 1904.66 749.608 1897.54 749.608 1890.13C749.608 1882.71 752.555 1875.59 757.801 1870.35C763.046 1865.1 770.161 1862.16 777.579 1862.16H1635.18C1642.6 1862.16 1649.72 1865.1 1654.96 1870.35C1660.21 1875.59 1663.15 1882.71 1663.15 1890.13C1663.15 1897.54 1660.21 1904.66 1654.96 1909.9C1649.72 1915.15 1642.6 1918.1 1635.18 1918.1Z" fill="#E4E4E4"/>
<path d="M1149.33 2028.62H777.579C770.17 2028.6 763.069 2025.65 757.835 2020.41C752.601 2015.16 749.662 2008.06 749.662 2000.65C749.662 1993.24 752.601 1986.13 757.835 1980.89C763.069 1975.64 770.17 1972.69 777.579 1972.68H1149.33C1156.74 1972.69 1163.84 1975.64 1169.07 1980.89C1174.31 1986.13 1177.25 1993.24 1177.25 2000.65C1177.25 2008.06 1174.31 2015.16 1169.07 2020.41C1163.84 2025.65 1156.74 2028.6 1149.33 2028.62Z" fill="#E4E4E4"/>
<path d="M1894.14 914.1C2094.96 914.1 2257.75 751.305 2257.75 550.487C2257.75 349.669 2094.96 186.874 1894.14 186.874C1693.32 186.874 1530.53 349.669 1530.53 550.487C1530.53 751.305 1693.32 914.1 1894.14 914.1Z" fill="#5F0A87"/>
<path opacity="0.16" d="M1894.14 863.729C1802.15 863.717 1713.58 828.831 1646.29 766.105C1579 703.379 1537.99 617.476 1531.52 525.71C1530.93 534.176 1530.53 542.691 1530.53 551.306C1530.56 647.719 1568.89 740.17 1637.07 808.331C1705.26 876.493 1797.73 914.783 1894.14 914.783C1990.55 914.783 2083.02 876.493 2151.2 808.331C2219.39 740.17 2257.72 647.719 2257.75 551.306C2257.75 542.691 2257.35 534.176 2256.76 525.71C2250.29 617.476 2209.28 703.379 2141.99 766.105C2074.7 828.831 1986.13 863.717 1894.14 863.729Z" fill="#231F20"/>
<path d="M1894.14 728.177C1882.07 728.163 1870.49 723.361 1861.96 714.824C1853.42 706.287 1848.62 694.712 1848.6 682.639V419.154C1848.6 413.17 1849.77 407.243 1852.06 401.713C1854.34 396.183 1857.69 391.157 1861.92 386.923C1866.15 382.69 1871.17 379.331 1876.7 377.04C1882.23 374.748 1888.16 373.569 1894.14 373.569C1900.12 373.569 1906.05 374.748 1911.58 377.04C1917.1 379.331 1922.13 382.69 1926.36 386.923C1930.58 391.157 1933.94 396.183 1936.22 401.713C1938.51 407.243 1939.68 413.17 1939.68 419.154V682.639C1939.66 694.712 1934.86 706.286 1926.32 714.823C1917.79 723.36 1906.21 728.163 1894.14 728.177Z" fill="white"/>
<path d="M1716.86 550.898C1716.87 538.825 1721.68 527.25 1730.21 518.713C1738.75 510.176 1750.32 505.374 1762.4 505.36H2025.88C2031.87 505.354 2037.79 506.527 2043.32 508.812C2048.85 511.098 2053.88 514.451 2058.11 518.68C2062.35 522.909 2065.7 527.931 2068 533.459C2070.29 538.987 2071.47 544.913 2071.47 550.897C2071.47 556.881 2070.29 562.806 2068 568.334C2065.7 573.862 2062.35 578.884 2058.11 583.113C2053.88 587.342 2048.85 590.695 2043.32 592.981C2037.79 595.266 2031.87 596.44 2025.88 596.433H1762.4C1750.32 596.42 1738.75 591.618 1730.21 583.081C1721.68 574.545 1716.87 562.971 1716.86 550.898Z" fill="white"/>
<path d="M2440.74 628.159L2363.37 578.782L2261.71 680.877L2069.81 859.405C2059.43 857.092 2048.59 857.986 2038.73 861.968C2028.87 865.949 2020.45 872.831 2014.58 881.704C2008.71 890.576 2005.68 901.02 2005.88 911.654C2006.08 922.289 2009.5 932.612 2015.69 941.259C2021.88 949.906 2030.56 956.469 2040.56 960.08C2050.57 963.691 2061.43 964.18 2071.72 961.482C2082.01 958.783 2091.23 953.025 2098.18 944.969C2105.12 936.913 2109.46 926.938 2110.61 916.365L2322.24 757.75L2440.74 628.159Z" fill="#FFB8B8"/>
<path d="M2394.08 705.179L2338.02 580.235L2339.25 578.683C2340.02 577.709 2417.32 480.255 2479.38 423.159C2486.1 416.589 2494.17 411.564 2503.03 408.434C2511.89 405.304 2521.33 404.145 2530.68 405.036C2543.83 406.156 2556.37 411.089 2566.76 419.23C2577.14 427.371 2584.93 438.367 2589.16 450.868C2594 463.917 2594.99 478.086 2591.99 491.68C2589 505.274 2582.15 517.718 2572.27 527.525L2394.08 705.179Z" fill="#5F0A87"/>
<path d="M2444.72 294.502C2511.9 294.502 2566.36 240.041 2566.36 172.859C2566.36 105.677 2511.9 51.2158 2444.72 51.2158C2377.54 51.2158 2323.08 105.677 2323.08 172.859C2323.08 240.041 2377.54 294.502 2444.72 294.502Z" fill="#FFB8B8"/>
<path d="M2255.73 2333.93H2205.44L2181.51 2139.97H2255.73V2333.93Z" fill="#FFB8B8"/>
<path d="M2282.27 2421.06H2246.2L2239.77 2387.01L2223.28 2421.06H2127.63C2123.05 2421.06 2118.58 2419.6 2114.89 2416.88C2111.2 2414.16 2108.47 2410.34 2107.11 2405.96C2105.74 2401.58 2105.81 2396.88 2107.31 2392.55C2108.8 2388.21 2111.64 2384.47 2115.42 2381.87L2191.8 2329.12V2294.69L2272.14 2299.49L2282.27 2421.06Z" fill="#2F2E41"/>
<path d="M2885.99 2291.21L2839.27 2309.81L2745.3 2138.45L2814.26 2111L2885.99 2291.21Z" fill="#FFB8B8"/>
<path d="M2942.88 2362.34L2909.37 2375.68L2890.8 2346.43L2888.07 2384.16L2799.21 2419.53C2794.95 2421.23 2790.26 2421.52 2785.82 2420.36C2781.39 2419.2 2777.44 2416.66 2774.55 2413.1C2771.66 2409.53 2769.99 2405.14 2769.78 2400.56C2769.56 2395.98 2770.82 2391.45 2773.36 2387.64L2824.82 2310.38L2812.09 2278.4L2888.5 2253.14L2942.88 2362.34Z" fill="#2F2E41"/>
<path d="M2275.13 2244.83H2171.11L2199.85 1756.13L2178.84 1424.88L2178.88 1424.61L2257.26 949.776C2263.43 912.333 2280.09 877.407 2305.31 849.057L2306.27 847.981L2568.58 912.766L2594.95 972.903C2685.01 1026.47 2713.45 1328.5 2714.62 1341.37L2752.74 1717.89L2846.01 2179.36L2780.33 2214.72L2779.23 2212.53L2571.89 1800.23L2440.95 1365.44L2357.09 1756.76L2275.13 2244.83Z" fill="#2F2E41"/>
<path d="M2595.37 178.584C2591.06 150.309 2586.57 121.797 2576.45 95.1733C2566.34 68.5497 2550.04 43.6126 2526.66 28.5307C2489.64 4.65217 2441.71 9.2575 2400.2 22.993C2368.1 33.6156 2336.76 49.7609 2314.13 75.717C2291.49 101.673 2278.78 138.71 2287.2 172.649C2331.47 162.188 2375.75 151.728 2420.02 141.267L2415.18 144.691C2429.72 151.941 2442.41 162.406 2452.3 175.295C2462.19 188.183 2469.01 203.155 2472.25 219.073C2475.42 235.186 2474.96 251.8 2470.92 267.715C2466.88 283.631 2459.35 298.448 2448.88 311.096C2479.07 300.384 2509.27 289.673 2539.46 278.961C2558.1 272.349 2578.05 264.731 2589.1 247.772C2601.92 228.11 2598.94 202.048 2595.37 178.584Z" fill="#2F2E41"/>
<path d="M5.69191 2420H2984.31C2985.82 2420 2987.27 2419.32 2988.33 2418.1C2989.4 2416.88 2990 2415.22 2990 2413.5C2990 2411.78 2989.4 2410.12 2988.33 2408.9C2987.27 2407.68 2985.82 2407 2984.31 2407H5.69191C4.18229 2407 2.73459 2407.68 1.66713 2408.9C0.599675 2410.12 0 2411.78 0 2413.5C0 2415.22 0.599675 2416.88 1.66713 2418.1C2.73459 2419.32 4.18229 2420 5.69191 2420Z" fill="#CCCCCC"/>
</g>
<defs>
<clipPath id="clip0_74_51">
<rect width="3026" height="2421.06" fill="white"/>
</clipPath>
</defs>
</svg>
