<svg width="358" height="136" viewBox="0 0 358 136" fill="none" xmlns="http://www.w3.org/2000/svg">
<path fill-rule="evenodd" clip-rule="evenodd" d="M26.9044 111.213C26.9535 109.761 26.9996 108.4 26.8806 107.911C23.8666 95.5342 33.483 81.9771 33.9156 81.3711C33.9306 81.3564 33.9343 81.3491 33.9343 81.3491L36.7431 78.5679L35.5084 76.7139L57.699 77.3345L58.6912 81.0537L73.3408 136H55.6243L50.7059 121.279L46.4229 115.622L45.1519 136H31.3106C30.4034 130.936 29.1576 125.403 28.2164 121.224C27.5834 118.413 27.0882 116.214 26.9264 115.181C26.7979 114.359 26.8528 112.736 26.9044 111.213Z" fill="#2F2E41"/>
<g clip-path="url(#clip0_118_114)">
<path d="M111.701 125.118V11.5772C111.701 5.59867 116.554 0.734863 122.52 0.734863H347.18C353.146 0.734863 358 5.59867 358 11.5772V125.118C358 131.097 353.146 135.961 347.18 135.961H122.52C116.554 135.961 111.701 131.097 111.701 125.118ZM356.903 11.5772C356.903 6.19631 352.55 1.83426 347.18 1.83426H122.52C117.151 1.83426 112.798 6.19643 112.798 11.5774V125.118C112.798 130.499 117.151 134.861 122.52 134.861H275.331C320.382 134.861 356.903 98.2637 356.903 53.1184L356.903 11.5772Z" fill="#E6E6E6"/>
<path d="M190.849 21.3872H64.9381C61.2047 21.3872 58.1688 24.4294 58.1688 28.1707V74.5208C58.1688 78.2621 61.2047 81.3043 64.9381 81.3043H190.849C194.582 81.3043 197.618 78.2621 197.618 74.5208V28.1707C197.618 24.4294 194.582 21.3872 190.849 21.3872Z" fill="white"/>
<path d="M190.849 21.3872H64.9381C61.2047 21.3872 58.1688 24.4294 58.1688 28.1707V74.5208C58.1688 78.2621 61.2047 81.3043 64.9381 81.3043H190.849C194.582 81.3043 197.618 78.2621 197.618 74.5208V28.1707C197.618 24.4294 194.582 21.3872 190.849 21.3872ZM196.907 74.5208C196.907 77.8698 194.191 80.591 190.849 80.591H64.9381C61.5962 80.591 58.8806 77.8698 58.8806 74.5208V28.1707C58.8806 24.8217 61.5962 22.1005 64.9381 22.1005H190.849C194.191 22.1005 196.907 24.8217 196.907 28.1707V74.5208Z" fill="#3F3D56"/>
<path d="M70.8335 42.5117H182.738C183.798 42.5117 184.658 43.3731 184.658 44.4357C184.658 45.4982 183.798 46.3596 182.738 46.3596H70.8335C69.7731 46.3596 68.9135 45.4982 68.9135 44.4357C68.9135 43.3731 69.7731 42.5117 70.8335 42.5117Z" fill="#5F0A87"/>
<path d="M70.8335 55.1548H111.426C112.487 55.1548 113.346 56.0162 113.346 57.0787C113.346 58.1413 112.487 59.0027 111.426 59.0027H70.8335C69.7731 59.0027 68.9135 58.1413 68.9135 57.0787C68.9135 56.0162 69.7731 55.1548 70.8335 55.1548Z" fill="#5F0A87"/>
<path d="M315.187 36.6339H238.39C237.18 36.6339 236.196 35.6475 236.196 34.4351C236.196 33.2227 237.18 32.2363 238.39 32.2363H315.187C316.397 32.2363 317.381 33.2227 317.381 34.4351C317.381 35.6475 316.397 36.6339 315.187 36.6339Z" fill="#E6E6E6"/>
<path d="M329.746 84.3192H222.734V83.7695C257.969 89.1845 293.675 88.739 329.746 83.7695V84.3192Z" fill="#E6E6E6"/>
<path d="M315.187 64.6686H238.39C237.18 64.6686 236.196 63.6822 236.196 62.4698C236.196 61.2574 237.18 60.271 238.39 60.271H315.187C316.397 60.271 317.381 61.2574 317.381 62.4698C317.381 63.6822 316.397 64.6686 315.187 64.6686Z" fill="#E6E6E6"/>
<path d="M330.294 91.4653H223.283V92.015H330.294V91.4653Z" fill="#E6E6E6"/>
<path d="M315.187 50.2076H238.39C237.18 50.2076 236.196 49.2212 236.196 48.0089C236.196 46.7965 237.18 45.8101 238.39 45.8101H315.187C316.397 45.8101 317.381 46.7965 317.381 48.0089C317.381 49.2212 316.397 50.2076 315.187 50.2076Z" fill="#E6E6E6"/>
<path d="M330.294 99.1611C293.357 96.6433 257.484 96.2424 223.283 99.1611V98.6114H330.294V99.1611Z" fill="#E6E6E6"/>
<path d="M182.609 90.2157L178.094 88.0727C179.946 90.6622 181.541 94.7065 182.396 97.9247C183.842 94.9269 186.173 91.259 188.481 89.068L183.71 90.298C186.65 75.8586 197.708 65.4925 210.372 65.4925V64.3931C197.144 64.3931 185.611 75.1933 182.609 90.2157Z" fill="#3F3D56"/>
<path d="M203.387 112.217H174.863C173.653 112.217 172.669 111.231 172.669 110.018C172.669 108.806 173.653 107.819 174.863 107.819H203.387C204.597 107.819 205.582 108.806 205.582 110.018C205.582 111.231 204.597 112.217 203.387 112.217Z" fill="#5F0A87"/>
<path d="M130.351 64.4995C134.593 64.4995 138.031 61.0539 138.031 56.8037C138.031 52.5534 134.593 49.1079 130.351 49.1079C126.11 49.1079 122.672 52.5534 122.672 56.8037C122.672 61.0539 126.11 64.4995 130.351 64.4995Z" fill="#5F0A87"/>
<path d="M134.346 52.2973C133.98 52.0828 133.421 52.194 133.22 52.5931C132.307 54.4052 131.394 56.2173 130.482 58.0295C129.745 56.8735 128.803 55.8642 127.71 55.0182C127.358 54.7457 126.788 54.9645 126.585 55.314C126.336 55.7399 126.527 56.169 126.88 56.4421C128.154 57.4286 129.137 58.7545 129.798 60.2179C130.05 60.7742 130.957 60.7391 131.219 60.2179C132.36 57.9537 133.5 55.6896 134.641 53.4254C134.841 53.028 134.746 52.5317 134.346 52.2973Z" fill="white"/>
<path d="M222.508 41.9619C226.749 41.9619 230.188 38.5163 230.188 34.2661C230.188 30.0158 226.749 26.5703 222.508 26.5703C218.266 26.5703 214.828 30.0158 214.828 34.2661C214.828 38.5163 218.266 41.9619 222.508 41.9619Z" fill="#5F0A87"/>
<path d="M226.502 29.7597C226.136 29.5452 225.578 29.6564 225.377 30.0555C224.464 31.8676 223.551 33.6797 222.638 35.4919C221.902 34.3359 220.96 33.3266 219.867 32.4806C219.515 32.2081 218.945 32.4269 218.741 32.7764C218.492 33.2023 218.683 33.6314 219.036 33.9045C220.311 34.891 221.293 36.217 221.955 37.6803C222.206 38.2366 223.113 38.2015 223.376 37.6803C224.516 35.4161 225.657 33.152 226.797 30.8878C226.998 30.4905 226.902 29.9941 226.502 29.7597Z" fill="white"/>
<path d="M332.767 54.6049C337.008 54.6049 340.446 51.1594 340.446 46.9092C340.446 42.6589 337.008 39.2134 332.767 39.2134C328.525 39.2134 325.087 42.6589 325.087 46.9092C325.087 51.1594 328.525 54.6049 332.767 54.6049Z" fill="#5F0A87"/>
<path d="M336.761 42.4027C336.395 42.1882 335.836 42.2995 335.635 42.6986C334.723 44.5107 333.81 46.3228 332.897 48.1349C332.161 46.979 331.218 45.9696 330.126 45.1237C329.774 44.8512 329.204 45.07 329 45.4194C328.751 45.8454 328.942 46.2744 329.295 46.5476C330.569 47.5341 331.552 48.86 332.214 50.3234C332.465 50.8797 333.372 50.8446 333.635 50.3234C334.775 48.0592 335.916 45.795 337.056 43.5309C337.256 43.1335 337.161 42.6372 336.761 42.4027Z" fill="white"/>
<path d="M160.64 95.052H142.142C140.994 95.052 140.059 94.1157 140.059 92.9648C137.614 85.8013 137.662 78.7821 140.059 71.8987C140.059 70.7478 140.994 69.8115 142.142 69.8115H160.64C161.789 69.8115 162.723 70.7478 162.723 71.8987V92.9648C162.723 94.1157 161.789 95.052 160.64 95.052Z" fill="#E6E6E6"/>
<path d="M146.105 70.4336C143.109 70.4336 140.68 72.8678 140.68 75.8705V92.5181C140.68 93.5742 141.534 94.4303 142.588 94.4303H152.818C157.945 94.4303 162.102 90.2647 162.102 85.1262V72.3459C162.102 71.2897 161.248 70.4336 160.194 70.4336H146.105Z" fill="white"/>
<path d="M155.699 76.5553H147.038C146.82 76.5553 146.643 76.3772 146.643 76.1585C146.643 75.9397 146.82 75.7617 147.038 75.7617H155.699C155.917 75.7617 156.095 75.9397 156.095 76.1585C156.095 76.3772 155.917 76.5553 155.699 76.5553Z" fill="#E6E6E6"/>
<path d="M155.699 85.0167H147.038C146.82 85.0167 146.643 84.8387 146.643 84.6199C146.643 84.4011 146.82 84.2231 147.038 84.2231H155.699C155.917 84.2231 156.095 84.4011 156.095 84.6199C156.095 84.8387 155.917 85.0167 155.699 85.0167Z" fill="#E6E6E6"/>
<path d="M160.346 80.7887H142.391C142.173 80.7887 141.995 80.6106 141.995 80.3919C141.995 80.1731 142.173 79.9951 142.391 79.9951H160.346C160.565 79.9951 160.742 80.1731 160.742 80.3919C160.742 80.6106 160.565 80.7887 160.346 80.7887Z" fill="#E6E6E6"/>
<path d="M160.558 88.4571H153.066C152.848 88.4571 152.67 88.2791 152.67 88.0603C152.67 87.8415 152.848 87.6636 153.066 87.6636H160.558C160.776 87.6636 160.954 87.8415 160.954 88.0603C160.954 88.2791 160.776 88.4571 160.558 88.4571Z" fill="#E6E6E6"/>
<path d="M33.1965 37.4186C33.6838 35.1668 33.8269 36.8256 34.8867 34.7831C34.1593 37.4225 35.5016 36.5582 37.2846 38.6277C49.8152 40.5966 50.6048 36.2959 55.2421 36.4277L55.2658 36.4275C56.2862 36.411 56.8104 35.1866 56.1953 34.3706C54.6763 32.3558 53.0019 29.2468 54.5866 27.2895C57.3939 23.822 54.92 16.7114 53.71 18.2487C53.71 12.319 46.4229 8.43048 43.5962 9.39391C38.3731 11.1741 33.5361 13.5751 32.9502 18.9475C32.8588 19.7863 32.7405 20.6204 32.5901 21.4507C32.2847 23.1368 31.0268 23.5846 31.4597 25.2405L32.8134 26.6204C33.4487 29.0505 33.2479 31.6017 32.3777 33.9576C31.8966 35.2599 31.8299 36.3764 33.1965 37.4186Z" fill="#2F2E41"/>
<path d="M46.2419 29.462C50.5798 29.462 54.0963 25.9381 54.0963 21.5911C54.0963 17.2441 50.5798 13.7202 46.2419 13.7202C41.904 13.7202 38.3874 17.2441 38.3874 21.5911C38.3874 25.9381 41.904 29.462 46.2419 29.462Z" fill="#A0616A"/>
<path d="M33.9156 81.3713C36.4857 82.2909 53.8532 81.3414 58.6912 81.0536L57.699 77.3344L35.5084 76.7139L36.7431 78.5679L33.9343 81.3489C33.9343 81.3489 33.9305 81.3564 33.9156 81.3713Z" fill="#A0616A"/>
<path d="M70.6645 26.5169C70.5375 27.6175 70.173 28.5981 69.6693 29.3374L69.1203 39.8988L64.1129 39.49L65.2089 28.8205C64.8869 27.9855 64.7553 26.9474 64.8823 25.8468C65.1725 23.3325 66.7021 21.4442 68.2988 21.6292C69.8955 21.8142 70.9546 24.0025 70.6645 26.5169Z" fill="#A0616A"/>
<path d="M50.7066 37.616L51.3599 39.2137C51.3599 39.2137 41.815 38.2554 42.0188 43.2494C42.1927 47.5104 60.159 64.3972 61.0175 64.7915C63.5601 65.9592 66.5152 64.3876 66.9753 61.6231C71.0207 51.1639 71.8591 41.7342 70.0106 33.167H64.5251L62.7388 39.9255L62.6384 45.0665L59.7458 51.2497L50.2628 39.2137L50.7066 37.616Z" fill="#5F0A87"/>
<path d="M18.9055 96.3204C19.2582 95.2435 19.3389 94.1761 19.1872 93.2731L23.1936 83.2271L18.3675 81.4565L14.823 91.8379C14.1669 92.4752 13.6007 93.383 13.248 94.4598C12.4423 96.92 13.0557 99.3308 14.6179 99.8446C16.1802 100.358 18.0998 98.7805 18.9055 96.3204Z" fill="#A0616A"/>
<path d="M42.0156 37.621C42.0156 37.621 36.0898 35.3694 32.7258 38.1207C31.3385 39.2554 25.2031 47.074 24.258 57.5997C24.1839 58.4247 23.6231 59.1344 23.3072 59.9059C21.3587 64.6641 18.0044 66.8558 16.578 70.9252C16.0207 72.5154 17.043 76.6282 16.6908 78.0002C14.8467 85.1843 15.5121 89.2803 15.5121 89.2803L20.4921 90.9416L23.1936 89.0284L27.6307 72.7916L42.0156 37.621Z" fill="#5F0A87"/>
<path d="M86.5856 25.2405H68.0877C66.9392 25.2405 66.0049 24.3042 66.0049 23.1533C63.5591 15.9898 63.6074 8.97057 66.0049 2.08718C66.0049 0.93629 66.9392 0 68.0877 0H86.5856C87.7341 0 88.6684 0.93629 88.6684 2.08718V23.1533C88.6684 24.3042 87.7341 25.2405 86.5856 25.2405Z" fill="#E6E6E6"/>
<path d="M72.051 0.62207C69.0546 0.62207 66.6254 3.05627 66.6254 6.059V22.7065C66.6254 23.7626 67.4798 24.6188 68.5337 24.6188H78.7631C83.8909 24.6188 88.0478 20.4532 88.0478 15.3146V2.53433C88.0478 1.47822 87.1935 0.62207 86.1396 0.62207H72.051Z" fill="white"/>
<path d="M81.6446 6.74376H72.9841C72.7658 6.74376 72.5881 6.56573 72.5881 6.34693C72.5881 6.12814 72.7658 5.9502 72.9841 5.9502H81.6446C81.863 5.9502 82.0405 6.12814 82.0405 6.34693C82.0405 6.56573 81.8629 6.74376 81.6446 6.74376Z" fill="#E6E6E6"/>
<path d="M81.6446 15.2052H72.9841C72.7658 15.2052 72.5881 15.0272 72.5881 14.8084C72.5881 14.5896 72.7658 14.4116 72.9841 14.4116H81.6446C81.863 14.4116 82.0405 14.5896 82.0405 14.8084C82.0405 15.0272 81.8629 15.2052 81.6446 15.2052Z" fill="#E6E6E6"/>
<path d="M86.2919 10.9772H68.3368C68.1185 10.9772 67.9408 10.7991 67.9408 10.5803C67.9408 10.3615 68.1185 10.1836 68.3368 10.1836H86.2919C86.5103 10.1836 86.6878 10.3615 86.6878 10.5803C86.6878 10.7991 86.5102 10.9772 86.2919 10.9772Z" fill="#E6E6E6"/>
<path d="M86.5037 18.6456H79.0116C78.7933 18.6456 78.6156 18.4676 78.6156 18.2488C78.6156 18.03 78.7933 17.8521 79.0116 17.8521H86.5037C86.722 17.8521 86.8996 18.03 86.8996 18.2488C86.8996 18.4676 86.722 18.6456 86.5037 18.6456Z" fill="#E6E6E6"/>
<path d="M48.3711 12.2781H46.772C42.0939 12.2833 34.098 18.9139 37.192 23.5647C34.55 30.6267 34.4537 34.3011 35.5752 36.2242C35.9881 36.932 36.8078 37.2545 37.624 37.1971C37.7328 37.1895 37.8424 37.1871 37.9527 37.1908C38.7435 37.217 39.8042 40.9419 40.5402 41.2283L42.494 40.6332L45.6988 37.4241L44.0726 32.5296L40.926 30.0626L41.3547 24.3492C39.2487 19.4986 41.5399 19.2611 42.8294 17.6964L42.9598 22.7163L44.8065 20.9304C46.3107 20.9695 48.0686 21.6229 49.2371 20.2637C51.3599 17.7751 53.5605 20.7797 56.0677 21.387L56.8454 20.7701C56.872 19.3706 56.6654 18.0193 56.2644 16.8093C56.0756 16.2397 55.5931 15.7703 55.5729 15.2041C55.4968 13.0793 51.4893 11.0183 48.3711 12.2781Z" fill="#2F2E41"/>
<path d="M62.6384 51.5854L61.8391 55.8354L61.6454 56.8548L57.394 65.5991L57.9527 78.4184C58.3104 79.9187 43.2148 76.514 35.3728 80.0313L29.2686 50.7764L35.4582 37.2927L40.3021 34.5959L41.1095 31.3599H51.3707C51.9172 33.9245 51.3248 35.1882 50.2628 35.9154L52.8332 42.7848L62.6384 51.5854Z" fill="#5F0A87"/>
</g>
<defs>
<clipPath id="clip0_118_114">
<rect width="358" height="136" fill="white"/>
</clipPath>
</defs>
</svg>
