<svg width="358" height="214" viewBox="0 0 358 214" fill="none" xmlns="http://www.w3.org/2000/svg">
<g clip-path="url(#clip0_16_59)">
<path d="M111.701 126.298V11.6862C111.701 5.65127 116.554 0.741577 122.52 0.741577H347.18C353.146 0.741577 358 5.65127 358 11.6862V126.298C358 132.333 353.146 137.243 347.18 137.243H122.52C116.554 137.243 111.701 132.333 111.701 126.298ZM356.903 11.6862C356.903 6.25455 352.55 1.85135 347.18 1.85135H122.52C117.151 1.85135 112.798 6.25467 112.798 11.6864V126.298C112.798 131.73 117.151 136.133 122.52 136.133H275.331C320.382 136.133 356.903 99.1905 356.903 53.6193L356.903 11.6862Z" fill="#E6E6E6"/>
<path d="M190.849 21.5891H64.9381C61.2047 21.5891 58.1688 24.66 58.1688 28.4365V75.2239C58.1688 79.0005 61.2047 82.0714 64.9381 82.0714H190.849C194.582 82.0714 197.618 79.0005 197.618 75.2239V28.4365C197.618 24.66 194.582 21.5891 190.849 21.5891Z" fill="white"/>
<path d="M190.849 21.5891H64.9381C61.2047 21.5891 58.1688 24.66 58.1688 28.4365V75.2239C58.1688 79.0005 61.2047 82.0714 64.9381 82.0714H190.849C194.582 82.0714 197.618 79.0005 197.618 75.2239V28.4365C197.618 24.66 194.582 21.5891 190.849 21.5891ZM196.907 75.2239C196.907 78.6045 194.191 81.3514 190.849 81.3514H64.9381C61.5962 81.3514 58.8806 78.6045 58.8806 75.2239V28.4365C58.8806 25.056 61.5962 22.3091 64.9381 22.3091H190.849C194.191 22.3091 196.907 25.056 196.907 28.4365V75.2239Z" fill="#3F3D56"/>
<path d="M70.8334 42.9127H182.738C183.798 42.9127 184.658 43.7822 184.658 44.8548C184.658 45.9274 183.798 46.7969 182.738 46.7969H70.8334C69.7731 46.7969 68.9135 45.9274 68.9135 44.8548C68.9135 43.7822 69.7731 42.9127 70.8334 42.9127Z" fill="#5F0A87"/>
<path d="M70.8334 55.6751H111.426C112.487 55.6751 113.346 56.5446 113.346 57.6172C113.346 58.6898 112.487 59.5593 111.426 59.5593H70.8334C69.7731 59.5593 68.9135 58.6898 68.9135 57.6172C68.9135 56.5446 69.7731 55.6751 70.8334 55.6751Z" fill="#5F0A87"/>
<path d="M315.187 36.9794H238.39C237.18 36.9794 236.196 35.9837 236.196 34.7599C236.196 33.536 237.18 32.5403 238.39 32.5403H315.187C316.397 32.5403 317.381 33.536 317.381 34.7599C317.381 35.9837 316.397 36.9794 315.187 36.9794Z" fill="#E6E6E6"/>
<path d="M329.746 85.1145H222.734V84.5596C257.969 90.0256 293.675 89.5759 329.746 84.5596V85.1145Z" fill="#E6E6E6"/>
<path d="M315.187 65.2785H238.39C237.18 65.2785 236.196 64.2828 236.196 63.059C236.196 61.8351 237.18 60.8394 238.39 60.8394H315.187C316.397 60.8394 317.381 61.8351 317.381 63.059C317.381 64.2828 316.397 65.2785 315.187 65.2785Z" fill="#E6E6E6"/>
<path d="M330.294 92.328H223.283V92.8829H330.294V92.328Z" fill="#E6E6E6"/>
<path d="M315.187 50.6811H238.39C237.18 50.6811 236.196 49.6854 236.196 48.4616C236.196 47.2378 237.18 46.2421 238.39 46.2421H315.187C316.397 46.2421 317.381 47.2378 317.381 48.4616C317.381 49.6854 316.397 50.6811 315.187 50.6811Z" fill="#E6E6E6"/>
<path d="M330.294 100.096C293.357 97.5548 257.484 97.1501 223.283 100.096V99.5415H330.294V100.096Z" fill="#E6E6E6"/>
<path d="M182.609 91.0667L178.094 88.9035C179.946 91.5174 181.541 95.5998 182.396 98.8484C183.842 95.8223 186.173 92.1198 188.481 89.9081L183.71 91.1497C186.65 76.5741 197.708 66.1102 210.372 66.1102V65.0004C197.144 65.0004 185.611 75.9026 182.609 91.0667Z" fill="#3F3D56"/>
<path d="M203.387 113.275H174.863C173.653 113.275 172.669 112.28 172.669 111.056C172.669 109.832 173.653 108.836 174.863 108.836H203.387C204.597 108.836 205.582 109.832 205.582 111.056C205.582 112.28 204.597 113.275 203.387 113.275Z" fill="#5F0A87"/>
<path d="M130.351 65.1081C134.593 65.1081 138.031 61.6301 138.031 57.3397C138.031 53.0494 134.593 49.5714 130.351 49.5714C126.11 49.5714 122.672 53.0494 122.672 57.3397C122.672 61.6301 126.11 65.1081 130.351 65.1081Z" fill="#5F0A87"/>
<path d="M134.346 52.7909C133.98 52.5744 133.421 52.6867 133.22 53.0895C132.307 54.9187 131.394 56.7479 130.482 58.5772C129.745 57.4103 128.803 56.3914 127.71 55.5375C127.358 55.2624 126.788 55.4833 126.585 55.8361C126.336 56.266 126.527 56.6991 126.88 56.9749C128.154 57.9707 129.137 59.3091 129.798 60.7863C130.05 61.3478 130.957 61.3124 131.219 60.7863C132.36 58.5007 133.5 56.2152 134.641 53.9297C134.841 53.5286 134.746 53.0275 134.346 52.7909Z" fill="white"/>
<path d="M222.508 42.3579C226.749 42.3579 230.188 38.8798 230.188 34.5895C230.188 30.2991 226.749 26.8211 222.508 26.8211C218.266 26.8211 214.828 30.2991 214.828 34.5895C214.828 38.8798 218.266 42.3579 222.508 42.3579Z" fill="#5F0A87"/>
<path d="M226.502 30.0407C226.136 29.8241 225.578 29.9364 225.377 30.3393C224.464 32.1685 223.551 33.9977 222.638 35.8269C221.902 34.6601 220.96 33.6412 219.867 32.7872C219.515 32.5122 218.945 32.733 218.741 33.0858C218.493 33.5158 218.683 33.9489 219.036 34.2246C220.311 35.2204 221.293 36.5589 221.955 38.036C222.207 38.5976 223.113 38.5621 223.376 38.036C224.517 35.7505 225.657 33.465 226.798 31.1795C226.998 30.7783 226.902 30.2773 226.502 30.0407Z" fill="white"/>
<path d="M332.767 55.1202C337.008 55.1202 340.446 51.6422 340.446 47.3518C340.446 43.0615 337.008 39.5834 332.767 39.5834C328.525 39.5834 325.087 43.0615 325.087 47.3518C325.087 51.6422 328.525 55.1202 332.767 55.1202Z" fill="#5F0A87"/>
<path d="M336.761 42.803C336.395 42.5865 335.836 42.6987 335.635 43.1016C334.723 44.9308 333.81 46.76 332.897 48.5893C332.161 47.4224 331.218 46.4035 330.126 45.5496C329.774 45.2745 329.204 45.4954 329 45.8481C328.751 46.2781 328.942 46.7112 329.295 46.9869C330.569 47.9827 331.552 49.3212 332.214 50.7983C332.465 51.3599 333.372 51.3244 333.635 50.7983C334.775 48.5128 335.916 46.2273 337.056 43.9418C337.256 43.5407 337.161 43.0396 336.761 42.803Z" fill="white"/>
<path d="M160.64 95.9489H142.142C140.994 95.9489 140.059 95.0038 140.059 93.842C137.614 86.6109 137.662 79.5255 140.059 72.5771C140.059 71.4154 140.994 70.4703 142.142 70.4703H160.64C161.789 70.4703 162.723 71.4154 162.723 72.5771V93.842C162.723 95.0037 161.789 95.9489 160.64 95.9489Z" fill="#E6E6E6"/>
<path d="M146.105 71.098C143.109 71.098 140.68 73.5552 140.68 76.5862V93.3908C140.68 94.4569 141.534 95.3211 142.588 95.3211H152.817C157.945 95.3211 162.102 91.1162 162.102 85.9292V73.0283C162.102 71.9623 161.248 71.098 160.194 71.098H146.105Z" fill="white"/>
<path d="M155.699 77.2777H147.038C146.82 77.2777 146.642 77.098 146.642 76.8771C146.642 76.6563 146.82 76.4766 147.038 76.4766H155.699C155.917 76.4766 156.095 76.6563 156.095 76.8771C156.095 77.098 155.917 77.2777 155.699 77.2777Z" fill="#E6E6E6"/>
<path d="M155.699 85.8187H147.038C146.82 85.8187 146.642 85.639 146.642 85.4182C146.642 85.1973 146.82 85.0177 147.038 85.0177H155.699C155.917 85.0177 156.095 85.1973 156.095 85.4182C156.095 85.639 155.917 85.8187 155.699 85.8187Z" fill="#E6E6E6"/>
<path d="M160.346 81.551H142.391C142.173 81.551 141.995 81.3713 141.995 81.1504C141.995 80.9296 142.173 80.7499 142.391 80.7499H160.346C160.565 80.7499 160.742 80.9296 160.742 81.1504C160.742 81.3713 160.565 81.551 160.346 81.551Z" fill="#E6E6E6"/>
<path d="M160.558 89.2916H153.066C152.848 89.2916 152.67 89.1119 152.67 88.891C152.67 88.6702 152.848 88.4905 153.066 88.4905H160.558C160.776 88.4905 160.954 88.6702 160.954 88.891C160.954 89.1119 160.776 89.2916 160.558 89.2916Z" fill="#E6E6E6"/>
<path d="M33.1965 37.7715C33.6838 35.4985 33.8269 37.1729 34.8867 35.1112C34.1593 37.7754 35.5016 36.903 37.2846 38.9921C49.8152 40.9795 50.6048 36.6383 55.2421 36.7713L55.2658 36.7711C56.2862 36.7544 56.8104 35.5185 56.1953 34.6948C54.6763 32.6609 53.0019 29.5226 54.5866 27.5469C57.3939 24.0467 54.9199 16.869 53.7099 18.4207C53.7099 12.4352 46.4229 8.50993 43.5962 9.48245C38.3731 11.2795 33.5361 13.7031 32.9502 19.1261C32.8588 19.9729 32.7405 20.8148 32.5901 21.6529C32.2847 23.355 31.0268 23.807 31.4597 25.4786L32.8134 26.8715C33.4487 29.3245 33.2479 31.8998 32.3777 34.2779C31.8966 35.5925 31.8299 36.7195 33.1965 37.7715Z" fill="#2F2E41"/>
<path d="M46.2418 29.7398C50.5797 29.7398 54.0963 26.1826 54.0963 21.7946C54.0963 17.4066 50.5797 13.8495 46.2418 13.8495C41.904 13.8495 38.3874 17.4066 38.3874 21.7946C38.3874 26.1826 41.904 29.7398 46.2418 29.7398Z" fill="#A0616A"/>
<path d="M34.0065 202.919L38.0514 203.016L40.3061 184.634L34.3368 184.491L34.0065 202.919Z" fill="#A0616A"/>
<path d="M47.8841 211.456C47.8841 212.147 47.3992 212.707 46.801 212.707H38.7722C38.7722 212.707 37.9821 209.495 34.7607 208.112L34.5384 212.707H30.3966L30.8984 205.318C30.8984 205.318 29.7904 201.365 32.0914 199.344C34.3924 197.324 32.5287 197.605 32.5287 197.605L33.4339 193.032L39.6926 193.776L39.7386 200.955L42.7759 208.081L47.2308 210.307C47.6274 210.505 47.8841 210.957 47.8841 211.456Z" fill="#2F2E41"/>
<path d="M38.455 186.242L41.6679 188.73L54.1921 175.217L49.451 171.545L38.455 186.242Z" fill="#A0616A"/>
<path d="M44.7009 201.408C44.2985 201.967 43.5804 202.131 43.0969 201.775L36.6081 196.992C36.6081 196.992 37.84 193.924 36.0414 190.888L33.1864 194.469L29.839 192.002L34.5464 186.329C34.5464 186.329 35.9525 182.474 38.9886 182.212C42.0247 181.95 40.3547 181.067 40.3547 181.067L43.7487 177.91L48.3735 182.24L44.2312 188.069L42.5373 195.638L44.8418 200.091C45.0469 200.487 44.9916 201.005 44.7009 201.408Z" fill="#2F2E41"/>
<path d="M26.8806 108.929C27.1245 109.94 26.6753 114.648 26.9264 116.267C27.5651 120.386 33.4001 142.839 32.3935 149.24C28.7054 172.692 33.8063 187.737 33.8063 187.737H42.0345L46.4229 116.712L50.7059 122.423L59.0866 147.744L44.2615 174.706L52.0025 181.173L75.115 144.001L58.6912 81.8182L57.699 78.0638L35.5084 77.4375L36.7431 79.309L33.9343 82.1163C33.9343 82.1163 33.9306 82.1238 33.9156 82.1389C33.483 82.7502 23.8666 96.4356 26.8806 108.929Z" fill="#2F2E41"/>
<path d="M33.9156 82.1389C36.4857 83.0671 53.8532 82.1087 58.6912 81.8182L57.699 78.0638L35.5084 77.4375L36.7431 79.309L33.9343 82.1163C33.9343 82.1163 33.9306 82.1238 33.9156 82.1389Z" fill="#A0616A"/>
<path d="M62.6384 52.0719L61.8391 56.3621L61.6454 57.391L57.394 66.2179L57.9527 79.1581C58.3104 80.6725 43.2148 77.2357 35.3728 80.7862L29.2686 51.2553L35.4582 37.6444L40.3021 34.9222L41.1095 31.6556H51.3707C51.9172 34.2444 51.3248 35.52 50.2628 36.2541L52.8332 43.1883L62.6384 52.0719Z" fill="#5F0A87"/>
<path d="M70.6645 26.7669C70.5375 27.8779 70.173 28.8678 69.6693 29.614L69.1203 40.2751L64.1129 39.8624L65.2089 29.0923C64.8869 28.2494 64.7553 27.2015 64.8824 26.0905C65.1725 23.5525 66.7021 21.6464 68.2988 21.8331C69.8955 22.0199 70.9546 24.2288 70.6645 26.7669Z" fill="#A0616A"/>
<path d="M50.7066 37.9707L51.3599 39.5835C51.3599 39.5835 41.815 38.6162 42.0188 43.6573C42.1927 47.9585 60.159 65.0045 61.0175 65.4026C63.5601 66.5813 66.5152 64.9949 66.9753 62.2043C71.0207 51.6464 71.8591 42.1278 70.0106 33.4797H64.5251L62.7388 40.302L62.6384 45.4915L59.7458 51.733L50.2628 39.5835L50.7066 37.9707Z" fill="#5F0A87"/>
<path d="M18.9055 97.2289C19.2582 96.1419 19.3389 95.0644 19.1872 94.1528L23.1936 84.012L18.3675 82.2248L14.823 92.7041C14.1669 93.3474 13.6007 94.2637 13.248 95.3508C12.4423 97.8341 13.0557 100.268 14.6179 100.786C16.1802 101.305 18.0998 99.7122 18.9055 97.2289Z" fill="#A0616A"/>
<path d="M42.0156 37.9762C42.0156 37.9762 36.0898 35.7033 32.7258 38.4806C31.3385 39.626 25.2031 47.5183 24.258 58.1434C24.1839 58.9761 23.6231 59.6926 23.3072 60.4714C21.3587 65.2744 18.0044 67.4867 16.578 71.5945C16.0207 73.1998 17.043 77.3514 16.6908 78.7364C14.8467 85.9882 15.5121 90.1229 15.5121 90.1229L20.4921 91.7998L23.1936 89.8685L27.6307 73.4786L42.0156 37.9762Z" fill="#5F0A87"/>
<path d="M86.5856 25.4786H68.0877C66.9392 25.4786 66.0049 24.5335 66.0049 23.3717C63.5592 16.1407 63.6075 9.0552 66.0049 2.10687C66.0049 0.945123 66.9392 0 68.0877 0H86.5856C87.7341 0 88.6685 0.945123 88.6685 2.10687V23.3717C88.6685 24.5335 87.7341 25.4786 86.5856 25.4786Z" fill="#E6E6E6"/>
<path d="M72.051 0.627747C69.0546 0.627747 66.6255 3.08491 66.6255 6.11597V22.9206C66.6255 23.9866 67.4798 24.8509 68.5337 24.8509H78.7631C83.8909 24.8509 88.0479 20.6459 88.0479 15.4589V2.55804C88.0479 1.49197 87.1935 0.627747 86.1396 0.627747H72.051Z" fill="white"/>
<path d="M81.6446 6.80739H72.9841C72.7658 6.80739 72.5881 6.62768 72.5881 6.40683C72.5881 6.18597 72.7658 6.00635 72.9841 6.00635H81.6446C81.8629 6.00635 82.0405 6.18597 82.0405 6.40683C82.0405 6.62768 81.8629 6.80739 81.6446 6.80739Z" fill="#E6E6E6"/>
<path d="M81.6446 15.3485H72.9841C72.7658 15.3485 72.5881 15.1688 72.5881 14.9479C72.5881 14.7271 72.7658 14.5474 72.9841 14.5474H81.6446C81.8629 14.5474 82.0405 14.7271 82.0405 14.9479C82.0405 15.1688 81.8629 15.3485 81.6446 15.3485Z" fill="#E6E6E6"/>
<path d="M86.2919 11.0807H68.3368C68.1185 11.0807 67.9408 10.901 67.9408 10.6801C67.9408 10.4593 68.1185 10.2797 68.3368 10.2797H86.2919C86.5103 10.2797 86.6878 10.4593 86.6878 10.6801C86.6878 10.901 86.5102 11.0807 86.2919 11.0807Z" fill="#E6E6E6"/>
<path d="M86.5037 18.8213H79.0117C78.7933 18.8213 78.6157 18.6416 78.6157 18.4207C78.6157 18.1999 78.7933 18.0203 79.0117 18.0203H86.5037C86.722 18.0203 86.8996 18.1999 86.8996 18.4207C86.8996 18.6416 86.722 18.8213 86.5037 18.8213Z" fill="#E6E6E6"/>
<path d="M91.9105 203.554C93.0437 203.626 93.6701 202.201 92.8127 201.371L92.7274 201.028C92.7386 201.001 92.7499 200.973 92.7613 200.946C93.9073 198.182 97.7914 198.201 98.9277 200.969C99.9363 203.426 101.22 205.888 101.537 208.486C101.678 209.632 101.614 210.801 101.363 211.926C103.726 206.704 104.97 201.002 104.97 195.268C104.97 193.827 104.892 192.386 104.732 190.949C104.601 189.774 104.421 188.605 104.187 187.448C102.922 181.19 100.183 175.23 96.2326 170.252C94.3336 169.202 92.7498 167.561 91.7932 165.593C91.4496 164.883 91.1803 164.12 91.0527 163.342C91.2689 163.371 91.8676 160.042 91.7046 159.837C92.0058 159.375 92.5449 159.145 92.8738 158.694C94.5098 156.45 96.7637 156.842 97.9404 159.891C100.454 161.174 100.478 163.303 98.936 165.349C97.9547 166.652 97.8199 168.414 96.959 169.808C97.0476 169.922 97.1397 170.034 97.2282 170.148C98.8525 172.256 100.257 174.521 101.442 176.9C101.107 174.256 101.601 171.07 102.444 169.016C103.403 166.676 105.2 164.705 106.783 162.682C108.684 160.252 112.583 161.312 112.918 164.393C112.921 164.422 112.924 164.452 112.927 164.482C112.692 164.616 112.462 164.759 112.237 164.909C110.954 165.768 111.397 167.78 112.918 168.018L112.952 168.023C112.867 168.88 112.722 169.729 112.509 170.564C114.54 178.508 110.156 181.401 103.896 181.531C103.758 181.602 103.623 181.674 103.485 181.742C104.119 183.549 104.626 185.401 105.002 187.279C105.338 188.939 105.572 190.616 105.703 192.301C105.866 194.426 105.852 196.562 105.675 198.683L105.685 198.608C106.135 196.272 107.39 194.089 109.211 192.576C111.924 190.322 115.757 189.492 118.683 187.68C120.092 186.808 121.897 187.935 121.652 189.587L121.64 189.666C121.204 189.846 120.779 190.053 120.368 190.286C120.133 190.421 119.902 190.563 119.677 190.714C118.394 191.572 118.837 193.584 120.358 193.822L120.393 193.827C120.417 193.831 120.439 193.834 120.463 193.838C119.716 195.634 118.674 197.3 117.37 198.737C116.101 205.672 110.647 206.33 104.814 204.31H104.81C104.173 207.12 103.241 209.865 102.043 212.482H92.1582C92.1227 212.37 92.0909 212.256 92.059 212.145C92.9731 212.202 93.8943 212.148 94.7942 211.98C94.0608 211.07 93.3274 210.152 92.594 209.242C92.5763 209.224 92.5621 209.206 92.5479 209.188C92.1759 208.722 91.8003 208.26 91.4283 207.794L91.4281 207.793C91.4048 206.363 91.5746 204.937 91.9105 203.554Z" fill="#F2F2F2"/>
<path d="M0 213.34C0 213.706 0.290749 214 0.652809 214H120.396C120.758 214 121.049 213.706 121.049 213.34C121.049 212.973 120.758 212.679 120.396 212.679H0.652809C0.290749 212.679 0 212.973 0 213.34Z" fill="#CCCCCC"/>
<path d="M48.3711 12.3941H46.772C42.0939 12.3994 34.098 19.0926 37.192 23.7872C34.55 30.9159 34.4537 34.6249 35.5752 36.5661C35.9881 37.2807 36.8078 37.6062 37.624 37.5483C37.7328 37.5406 37.8424 37.5382 37.9527 37.5419C38.7435 37.5683 39.8042 41.3284 40.5402 41.6175L42.494 41.0167L45.6988 37.7774L44.0726 32.8367L40.926 30.3464L41.3547 24.5791C39.2487 19.6827 41.5399 19.4431 42.8294 17.8636L42.9598 22.9308L44.8065 21.1281C46.3107 21.1675 48.0686 21.8272 49.2371 20.4551C51.3599 17.943 53.5605 20.976 56.0677 21.589L56.8454 20.9663C56.872 19.5535 56.6654 18.1895 56.2644 16.9681C56.0756 16.3931 55.5931 15.9193 55.5729 15.3477C55.4968 13.2029 51.4893 11.1225 48.3711 12.3941Z" fill="#2F2E41"/>
</g>
<defs>
<clipPath id="clip0_16_59">
<rect width="358" height="214" fill="white"/>
</clipPath>
</defs>
</svg>
