<svg width="35" height="35" viewBox="0 0 35 35" fill="none" xmlns="http://www.w3.org/2000/svg">
<path fill-rule="evenodd" clip-rule="evenodd" d="M17.5 0C7.83502 0 0 7.83502 0 17.5C0 27.165 7.83502 35 17.5 35C27.165 35 35 27.165 35 17.5C35 7.83502 27.165 0 17.5 0ZM25.1709 11.0978C25.3269 11.1624 25.4686 11.257 25.5877 11.3762C25.7177 11.4953 25.8214 11.6398 25.8924 11.8007C25.9633 11.9616 26 12.1353 26 12.311C26 12.4866 25.9633 12.6604 25.8924 12.8213C25.8214 12.9821 25.7177 13.1267 25.5877 13.2458L15.1364 23.6238C15.0174 23.743 14.8757 23.8376 14.7196 23.9022C14.5636 23.9668 14.3962 24 14.2271 24C14.058 24 13.8906 23.9668 13.7345 23.9022C13.5785 23.8376 13.4368 23.743 13.3177 23.6238L8.39951 18.74C8.27588 18.6214 8.177 18.4798 8.10849 18.3233C8.03998 18.1668 8.00317 17.9984 8.00018 17.8277C7.99722 17.6571 8.02814 17.4875 8.09116 17.3287C8.15417 17.1699 8.24808 17.025 8.36749 16.9023C8.48691 16.7795 8.62952 16.6813 8.78714 16.6133C8.94479 16.5452 9.11438 16.5087 9.28622 16.5057C9.45807 16.5028 9.62885 16.5335 9.78876 16.596C9.94867 16.6586 10.0946 16.7519 10.2182 16.8705L14.2271 20.864L23.769 11.3762C23.888 11.257 24.0297 11.1624 24.1858 11.0978C24.3418 11.0332 24.5092 11 24.6783 11C24.8474 11 25.0148 11.0332 25.1709 11.0978Z" fill="#00EE00"/>
</svg>
