<svg width="12" height="11" viewBox="0 0 12 11" fill="none" xmlns="http://www.w3.org/2000/svg">
<path d="M0.54168 1.02317C0.491444 1.03812 0.417181 1.06616 0.375682 1.08859C0.264288 1.14653 0.102657 1.30352 0.0480523 1.40445L0 1.49229V5.78168V10.0711L0.0480523 10.1608C0.115762 10.2841 0.299235 10.4449 0.445576 10.5047L0.567891 10.557H5.58062H10.5933L10.7157 10.5047C10.862 10.4449 11.0455 10.2841 11.1132 10.1608C11.1569 10.0785 11.1612 10.0374 11.1678 9.64306C11.1743 9.22253 11.1743 9.21506 11.1263 9.17207C11.0695 9.11974 10.9668 9.11413 10.8991 9.15712C10.8576 9.18328 10.8555 9.21319 10.8423 9.57204C10.8314 9.91594 10.8249 9.9664 10.7856 10.0337C10.731 10.1197 10.6458 10.1925 10.5387 10.2411C10.4667 10.2748 10.3575 10.2767 8.10992 10.2823L5.75535 10.2879V9.53466C5.75535 8.84125 5.75099 8.77584 5.71386 8.70482C5.60028 8.49175 5.32944 8.45437 4.9887 8.60763C4.81834 8.68239 4.79649 8.68799 4.63268 8.68799C4.423 8.68799 4.30287 8.64874 4.15652 8.53287C3.98834 8.40017 3.90097 8.18523 3.94466 8.01141C3.99489 7.79834 3.99489 7.78339 3.94247 7.7348C3.87913 7.67686 3.74808 7.67125 3.69347 7.72358C3.58426 7.82638 3.55369 8.1628 3.63232 8.374C3.74153 8.66743 4.01674 8.88985 4.37276 8.96835C4.62394 9.02442 4.86857 8.99638 5.13723 8.88237C5.2377 8.84125 5.33599 8.80948 5.35565 8.81322C5.39278 8.81882 5.39496 8.86742 5.40152 9.55335L5.40588 10.2879L3.05351 10.2823C0.803784 10.2767 0.694574 10.2748 0.622496 10.2411C0.51547 10.1925 0.430286 10.1215 0.375682 10.0337L0.327629 9.95892L0.321077 7.94413L0.314524 5.9312H1.19475C2.19948 5.9312 2.20385 5.92933 2.31962 5.77981C2.37204 5.71253 2.38077 5.68262 2.37859 5.57796C2.37859 5.46955 2.36767 5.43591 2.28248 5.29574C2.18856 5.14248 2.1842 5.13126 2.1842 4.96866C2.1842 4.82288 2.19293 4.78736 2.24317 4.707C2.42009 4.41917 2.79795 4.30142 3.14306 4.42478C3.26319 4.46776 3.45103 4.63037 3.50782 4.74064C3.54276 4.81166 3.55805 4.87521 3.55805 4.97053C3.55805 5.09014 3.54932 5.12005 3.46413 5.26957C3.31998 5.51815 3.31561 5.68449 3.44666 5.81345C3.56898 5.9312 3.56461 5.9312 4.53221 5.9312H5.40588L5.40152 6.65451L5.39496 7.37968L5.34691 7.38529C5.3207 7.38903 5.23552 7.36099 5.15907 7.32548C4.9756 7.23764 4.76373 7.19652 4.55405 7.20774C4.36402 7.21895 4.28539 7.24512 4.25044 7.30866C4.2155 7.37408 4.21987 7.4152 4.26792 7.46566C4.30723 7.50865 4.32471 7.51052 4.55842 7.51052H4.80523L4.99744 7.59275C5.11539 7.64322 5.23115 7.67873 5.29449 7.68433C5.4867 7.69929 5.64178 7.62826 5.71386 7.49369C5.75099 7.42267 5.75535 7.35726 5.75535 6.6732V5.9312L6.60064 5.93494C7.57916 5.94055 7.51582 5.92372 7.38476 6.13866C7.15979 6.50499 7.20348 6.88627 7.50271 7.18718C7.82816 7.51238 8.43099 7.58528 8.85691 7.35165C8.99233 7.27689 9.14959 7.12924 9.21949 7.01149C9.3833 6.73301 9.37457 6.43583 9.19328 6.13866C9.06223 5.92372 8.9967 5.94055 9.98833 5.93494L10.8445 5.9312V7.3124V8.69547L10.9013 8.73285C10.9756 8.78331 11.0411 8.78331 11.1154 8.73285L11.1722 8.6936L11.1678 5.09388L11.1612 1.49229L11.1001 1.38763C11.0302 1.26241 10.8423 1.10541 10.6982 1.04747L10.5933 1.00635L6.64651 1.00074L2.69967 0.997006L2.6538 1.03812C2.59482 1.09419 2.59701 1.18578 2.66035 1.23624L2.71059 1.27736H4.05824H5.40588V2.01936C5.40588 2.70341 5.41025 2.76883 5.44738 2.83798C5.5282 2.98937 5.6942 3.06787 5.88204 3.04544C5.93883 3.03797 6.0677 2.99685 6.17035 2.95386C6.32325 2.89032 6.38222 2.87536 6.51109 2.86976C6.64432 2.86228 6.68801 2.86976 6.7994 2.91274C7.12703 3.03797 7.30395 3.34262 7.21003 3.61549C7.14232 3.81548 6.95011 3.97621 6.70766 4.03415C6.53293 4.07714 6.40188 4.06032 6.17472 3.965C5.82088 3.81735 5.56096 3.85473 5.44738 4.07153C5.4168 4.12947 5.40588 4.19302 5.40588 4.35749C5.40588 4.55748 5.40807 4.57056 5.46049 4.61355C5.52383 4.66962 5.62212 4.67335 5.69201 4.62476C5.74007 4.59299 5.74443 4.57056 5.75535 4.38553C5.76628 4.19489 5.76846 4.18367 5.81433 4.17807C5.84054 4.17433 5.94101 4.2061 6.03712 4.24535C6.26646 4.34254 6.46303 4.37244 6.69019 4.34441C7.39787 4.25656 7.79321 3.60802 7.47869 3.0604C7.41316 2.94639 7.19692 2.74827 7.07242 2.68472C6.76227 2.5296 6.34727 2.52773 6.02838 2.67725C5.89078 2.74266 5.82088 2.75762 5.78375 2.73145C5.76191 2.7165 5.75535 2.56137 5.75535 1.99506V1.27549L8.10992 1.2811L10.4623 1.2867L10.5497 1.32782C10.6523 1.37455 10.7353 1.44744 10.7921 1.53902C10.8314 1.6007 10.8336 1.69415 10.8402 3.61736L10.8467 5.63216H9.96648C9.15615 5.63216 9.0797 5.6359 8.9967 5.66767C8.83507 5.73122 8.75426 5.86578 8.77828 6.03213C8.78483 6.0882 8.82852 6.19099 8.88312 6.28631C8.97049 6.43396 8.97704 6.45639 8.97704 6.5947C8.97704 6.70684 8.96394 6.76478 8.92899 6.83206C8.76954 7.13111 8.35455 7.27128 8.02037 7.14045C7.87184 7.08251 7.7255 6.96103 7.65342 6.83767C7.61192 6.76104 7.601 6.71619 7.601 6.5947C7.601 6.45639 7.60974 6.43396 7.6971 6.28071C7.75608 6.17978 7.79758 6.08072 7.80413 6.02652C7.8216 5.86205 7.7386 5.72935 7.58134 5.66767C7.49834 5.6359 7.4219 5.63216 6.62466 5.63216H5.75535V5.3705C5.75535 5.11631 5.75317 5.1051 5.70075 5.06211C5.63086 5.00043 5.53038 5.00043 5.46049 5.06211C5.40807 5.1051 5.40588 5.11631 5.40588 5.3705V5.63216L4.5606 5.62842L3.71313 5.62281L3.70658 5.58169C3.70221 5.55927 3.72842 5.49198 3.76555 5.43217C3.85729 5.28078 3.89224 5.1892 3.90971 5.0509C3.96213 4.63784 3.61048 4.20797 3.13432 4.09957C2.99672 4.06779 2.71714 4.0734 2.5708 4.10891C2.22133 4.19489 1.92646 4.45842 1.84783 4.75559C1.81943 4.86212 1.81943 5.07706 1.84783 5.18173C1.85875 5.22845 1.90899 5.33498 1.95704 5.41722C2.00728 5.50693 2.03785 5.58356 2.02912 5.60038C2.01601 5.62842 1.93738 5.63216 1.16636 5.63216H0.314524L0.321077 3.61736C0.327629 1.69415 0.329814 1.6007 0.369129 1.53902C0.425918 1.44744 0.508918 1.37455 0.611575 1.32782C0.694574 1.28857 0.729521 1.2867 1.40225 1.2811L2.10775 1.27549L2.15143 1.22689C2.21041 1.16335 2.20604 1.08859 2.14488 1.03812C2.09464 0.997006 2.08372 0.997006 1.36294 0.998876C0.82781 0.998876 0.609391 1.00635 0.54168 1.02317Z" fill="#00010C"/>
<path d="M1.80182 1.8531C1.76469 1.87927 1.75159 1.90731 1.75377 1.96151C1.75377 2.04187 2.07485 3.44924 2.10761 3.51466C2.15785 3.61558 2.35879 3.63801 2.45053 3.55204C2.47892 3.52774 2.56629 3.31467 2.67769 3.00255C2.77816 2.7222 2.86771 2.50352 2.87426 2.5166C2.883 2.52969 2.96382 2.74836 3.05555 3.00629C3.14729 3.26234 3.23247 3.49223 3.24339 3.51466C3.27179 3.57447 3.38755 3.61932 3.47273 3.60624C3.61471 3.58381 3.61907 3.57073 3.8091 2.75397C3.90739 2.33718 3.98602 1.97833 3.98602 1.95403C3.98602 1.89235 3.8921 1.81946 3.81565 1.81946C3.67368 1.81946 3.66494 1.84002 3.52952 2.41755L3.40502 2.94835L3.215 2.41568C3.07739 2.03627 3.01187 1.87553 2.9791 1.85124C2.91358 1.80638 2.80218 1.81012 2.74758 1.86058C2.71919 1.88675 2.63182 2.09795 2.52042 2.41194C2.41995 2.69229 2.3304 2.9147 2.32385 2.90723C2.31729 2.89975 2.26269 2.68295 2.2059 2.42689C2.08795 1.90357 2.07485 1.86432 2.02024 1.83815C1.9569 1.80825 1.85424 1.81572 1.80182 1.8531Z" fill="#00010C"/>
<path d="M8.88106 2.59683C8.38961 2.70898 8.05325 3.15567 8.13406 3.59302C8.24327 4.19858 9.00119 4.53126 9.64116 4.25652C10.2724 3.98551 10.4078 3.2566 9.90763 2.82672C9.64334 2.60244 9.24582 2.51273 8.88106 2.59683ZM9.41837 2.90709C9.58874 2.96129 9.75037 3.0996 9.81589 3.24912C9.91636 3.47527 9.84429 3.72385 9.63242 3.89206C9.48826 4.00607 9.3594 4.05093 9.17374 4.05093C8.89853 4.05093 8.67137 3.92944 8.54687 3.71077C8.4879 3.60797 8.47698 3.56872 8.47698 3.45658C8.47698 3.36313 8.49009 3.29771 8.52285 3.23604C8.60585 3.07717 8.79587 2.93326 8.98808 2.88279C9.09729 2.85476 9.2895 2.86597 9.41837 2.90709Z" fill="#00010C"/>
<path d="M1.39567 7.22454C1.30393 7.26192 1.29956 7.30117 1.29956 8.09176C1.29956 8.91599 1.30611 8.96459 1.41751 8.98889C1.4459 8.99449 1.63156 8.99636 1.82814 8.99262C2.16013 8.98702 2.1929 8.98328 2.30866 8.93655C2.65376 8.79825 2.85034 8.49547 2.85034 8.09923C2.85034 7.63385 2.58605 7.30117 2.15577 7.22267C2.01161 7.1965 1.45901 7.19837 1.39567 7.22454ZM2.12082 7.52919C2.34142 7.58526 2.47684 7.77216 2.4965 8.04503C2.5096 8.25249 2.45282 8.42631 2.33269 8.54593C2.21474 8.66555 2.11863 8.69732 1.86308 8.69732H1.64903V8.09923V7.50115H1.83032C1.93079 7.50115 2.06184 7.51423 2.12082 7.52919Z" fill="#00010C"/>
<path d="M7.7168 7.98709L7.65564 8.02633V8.8487C7.65564 9.6449 7.65782 9.67107 7.69932 9.70658C7.75611 9.75517 7.87406 9.75517 7.94177 9.70845C7.99201 9.6748 7.99419 9.65985 8.00511 9.38698L8.01603 9.10102L8.25411 9.33277C8.64508 9.71592 8.68221 9.74396 8.76521 9.74396C8.84821 9.74396 8.94431 9.6748 8.94431 9.61313C8.94431 9.54958 8.90718 9.50472 8.65382 9.25988L8.41574 9.02813L8.5315 8.99075C8.70187 8.93654 8.86568 8.79076 8.91374 8.65058C9.00329 8.38332 8.85695 8.11792 8.55334 8.00017C8.46816 7.96653 8.40045 7.95905 8.11432 7.95344C7.79324 7.94597 7.77359 7.94784 7.7168 7.98709ZM8.42011 8.28987C8.59266 8.36463 8.63634 8.51228 8.52495 8.63376C8.45724 8.70479 8.35677 8.73469 8.16893 8.73469H8.00511V8.49172V8.24875H8.16456C8.28687 8.24875 8.34585 8.25809 8.42011 8.28987Z" fill="#00010C"/>
</svg>
